<?xml version="1.0" encoding="UTF-8" standalone="no"?>
<svg
   xmlns:dc="http://purl.org/dc/elements/1.1/"
   xmlns:cc="http://creativecommons.org/ns#"
   xmlns:rdf="http://www.w3.org/1999/02/22-rdf-syntax-ns#"
   xmlns:svg="http://www.w3.org/2000/svg"
   xmlns="http://www.w3.org/2000/svg"
   xmlns:sodipodi="http://sodipodi.sourceforge.net/DTD/sodipodi-0.dtd"
   xmlns:inkscape="http://www.inkscape.org/namespaces/inkscape"
   version="1.1"
   id="el_gu6sYQ9_p"
   x="0px"
   y="0px"
   viewBox="0 0 512 512"
   style="enable-background:new 0 0 512 512;"
   xml:space="preserve"
   sodipodi:docname="compass.svg"
   inkscape:version="0.92.3 (2405546, 2018-03-11)">
   <style
     id="style2">
     @font-face {
     font-family: 'Norwester';
     src: url("/fonts/Norwester.woff") format("opentype");
     }
     #el_VlmQ5wJA7J{
      fill: #ffffff;
     }
     #el_4SzOOKl5xr{
     fill: #1bfb9a;stroke: #2c2e33;
     }
     #el_-rGNT9DI8e{
     fill: #6c46e2;
     }
     #el_iBNOGowErM{
     fill: #2c2e33;
     }
     #el_KXvFhY4tI7{
     fill: #1bfb9a;stroke: #2c2e33;stroke-width: 1.09250009;
     }
     #el_LxtJnH5sBs{
     fill: #e4eaf6;stroke: #2c2e33;
     }
     #el_EYnBbzEjyO{
     fill: #6c46e2;stroke: #2c2e33;
     }#el_em1zDXoNxW{
     fill: #5B5D6E;
     }
     #el_vAYt-B-ZYJd{
     font-style: normal;font-weight: boldnormal;font-size: 40px;line-height: 32.25;font-family: 'Norwester', opentype;letter-spacing: 0px;word-spacing: 0px;fill: #000000;fill-opacity: 1;stroke: none;
     }
     #el_G0W7vw3goLQ{
     font-style: normal;font-weight: bold;font-size: 57.59999847px;line-height: 32.25;font-family: Norwester, opentype;letter-spacing: 0px;word-spacing: 0px;fill: #6c46e2;fill-opacity: 1;stroke: none;stroke-width: 1.44000006;
     }
     #el_BUCIQ4fiMTa{
     stroke-width: 1.44000006;
     }
     #el_Es7pMC8r-q{
     transform: rotate(-45deg) scale(0.925);
      transform-origin: center;
      animation: rotate 6s ease-out;
     }
     @keyframes rotate {
     0% { transform: rotate(-45deg) scale(0.925)}
     50% { transform: rotate(calc(1040deg - 360deg)) scale(0.925) }
     68% { transform: rotate(calc(1030deg - 360deg)) scale(0.925) }
     80% { transform: rotate(calc(1035deg - 360deg)) scale(0.925) }
     100% { transform: rotate(calc(1035deg - 360deg)) scale(0.925) }
     }
   </style><defs
     id="defs53" /><sodipodi:namedview
     pagecolor="#ffffff"
     bordercolor="#666666"
     borderopacity="1"
     objecttolerance="10"
     gridtolerance="10"
     guidetolerance="10"
     inkscape:pageopacity="0"
     inkscape:pageshadow="2"
     inkscape:window-width="1920"
     inkscape:window-height="1053"
     id="el_mcvuuDFfZ_"
     showgrid="false"
     inkscape:zoom="1.6210938"
     inkscape:cx="167.17108"
     inkscape:cy="257.54217"
     inkscape:window-x="-9"
     inkscape:window-y="-9"
     inkscape:window-maximized="1"
     inkscape:current-layer="el_gu6sYQ9_p" /><defs
     id="defs7" /><path
     id="el_VlmQ5wJA7J"
     d="M 256,26.482422 A 229.517,229.517 0 0 0 26.482422,256 229.517,229.517 0 0 0 256,485.51758 229.517,229.517 0 0 0 485.51758,256 229.517,229.517 0 0 0 256,26.482422 Z m 2.46875,19.201172 c 4.95968,1.404129 8.12464,4.011933 10.29492,8.304687 0.69273,0.08087 1.08993,0.543603 1.125,1.472657 1.26211,1.624437 1.34329,3.982186 2.29883,5.833984 0.53715,1.040997 -0.78239,-2.210918 -1.08789,-3.341797 -0.1087,-0.402384 0.35451,0.756409 0.49609,1.148437 0.24431,0.676522 0.44035,1.36981 0.66016,2.054688 1.78627,5.565653 1.43843,8.201197 -0.21484,9.042969 4.4e-4,0.344461 0.007,0.670921 -0.002,1.048828 -0.002,0.06448 -0.008,0.123288 -0.01,0.1875 0.75052,3.254549 1.02668,7.050343 0.625,11.400391 -0.0834,0.902968 -0.0998,1.810745 -0.0762,2.716796 0.35772,1.772536 0.47538,3.583218 0.46094,5.390625 -0.007,0.880119 -0.088,1.758082 -0.0996,2.638672 0.0191,1.291923 0.0351,2.58488 0.0254,3.876953 -0.006,1.065959 -10e-4,2.131288 0,3.197266 0,0.70075 4e-5,1.40277 0,2.10352 -10e-6,0.17879 0.026,0.35859 0,0.53515 0.66777,0.90132 1.22558,1.9384 1.87305,2.83008 0.99427,1.36928 1.72812,3.67896 2.29688,5.1875 -2.44562,14.68039 0.35853,15.54147 -11.73829,18.03125 -0.90504,1.78405 -2.18055,3.35915 -3.99218,4.50586 -22.94772,14.52512 -38.40563,-5.15334 -23.15235,-20.7832 -0.68226,-1.9407 -1.00096,-3.93615 -0.71875,-6.00391 0.58044,-4.25274 2.3122,-6.71565 4.58789,-8.117188 -3.2e-4,-0.581952 -0.002,-1.163913 0.002,-1.746093 0.0148,-1.42674 -0.038,-2.854477 -0.0215,-4.28125 0.022,-0.885675 0.0256,-1.277716 0.0742,-2.148438 0.004,-0.06284 0.01,-0.221073 0.0215,-0.1875 -0.12906,-0.750261 -0.26313,-1.499876 -0.36719,-2.253906 -0.0461,-0.334427 -0.0349,-0.674335 -0.0469,-1.011719 -0.0195,-0.549729 -0.0441,-1.098381 -0.0488,-1.648437 -0.018,-2.10397 0.0674,-4.208287 0.29101,-6.300781 -0.50474,-2.31362 -0.79508,-4.896647 -0.81836,-7.753907 -4.96231,2.797184 -7.49004,2.433443 -3.73437,-6.058593 1.16398,-2.631924 2.05951,-5.417509 3.11523,-8.111329 0.001,-0.0066 0.003,-0.01294 0.004,-0.01953 -0.16261,0.265797 -0.23565,0.399237 -0.41407,0.6875 0.15033,-0.425819 0.2997,-0.851921 0.45118,-1.277344 0.0784,-2.58797 0.57798,-5.022189 2.07617,-7.083984 3.18975,-4.389718 10.5095,-2.710742 15.76367,-4.066406 z M 240.5918,57.423828 c 0.006,-0.0099 0.01,-0.01555 0.0156,-0.02539 0.005,-0.01172 0.009,-0.02344 0.0137,-0.03516 5.3e-4,-0.05936 8.8e-4,-0.118523 0.002,-0.177734 -0.0117,0.07949 -0.0188,0.1586 -0.0312,0.238281 z m 0.0156,-0.02539 c -0.006,0.01521 -0.0136,0.02971 -0.0195,0.04492 -0.35461,2.202753 -1.07955,4.47205 -0.39453,6.552735 0.22713,0.689885 0.43013,1.221679 0.64062,1.80664 -0.1015,-0.618519 -0.20317,-1.236948 -0.30468,-1.855468 0.17335,0.06497 0.34344,0.137679 0.51562,0.205078 -0.19281,-2.274762 -0.44237,-4.574478 -0.42383,-6.777344 -0.005,0.0089 -0.008,0.01448 -0.0137,0.02344 z m 0.4375,6.753906 c 0.0785,0.925674 0.14767,1.848376 0.18164,2.755859 0.58741,1.523227 1.13398,2.653515 1.69727,3.539063 -0.0842,-0.243332 -0.16182,-0.489102 -0.24024,-0.734375 -0.59288,-1.447621 -1.26291,-3.009079 -0.71289,-2.236329 0.0199,0.02789 0.0336,0.05952 0.0527,0.08789 -0.37445,-1.272837 -0.62272,-2.374427 -0.75977,-3.322265 -0.0733,-0.02921 -0.14524,-0.06107 -0.21875,-0.08984 z m 0.97852,3.412109 c 0.10645,0.361857 0.18139,0.682006 0.30859,1.072266 0.11692,0.358694 0.23666,0.716789 0.35156,1.076172 0.13055,0.318733 0.20749,0.543194 0.31641,0.824218 0.0428,-0.02707 0.0916,-0.06042 0.13477,-0.08789 -0.30453,-0.997375 -0.54476,-2.042576 -1.11133,-2.884766 z m -0.79688,-0.65625 c -0.12421,-0.322091 -0.26376,-0.747476 -0.39258,-1.105469 0.13731,0.836629 0.27481,1.673138 0.41211,2.509766 0.004,-0.464182 -0.002,-0.931587 -0.0195,-1.404297 z m 27.53711,-12.919922 c -0.0761,-0.0089 -0.15903,-0.0099 -0.24219,-0.0098 0.15399,0.160287 0.30205,0.312139 0.4629,0.482422 -0.0743,-0.156383 -0.1439,-0.32073 -0.22071,-0.472657 z m -25.02344,-2.785156 c -0.7241,0.646556 -0.9415,0.846565 -0.0547,0.08594 0.019,-0.02818 0.0355,-0.05784 0.0547,-0.08594 z M 252.5,54.074219 c -1.52673,0.718163 -3.05416,1.435865 -4.58008,2.15625 0.22116,1.441115 0.46664,2.880769 0.7461,4.314453 0.4109,0.1718 0.8565,0.39044 1.28906,0.591797 2.50066,-2.185112 5.32222,-3.281259 8.11523,-3.335938 -1.8595,-1.234976 -3.70639,-2.503504 -5.57031,-3.726562 z m -11.47266,1.632812 c 0.0956,-0.28198 -0.28662,0.537727 -0.3164,0.833985 -0.003,0.03299 -0.0101,0.06657 -0.0137,0.09961 0.11027,-0.311124 0.22407,-0.620991 0.33007,-0.933594 z m 1.9336,14.855469 c -0.48207,0.304458 -0.95454,0.599428 -1.40235,0.859375 0.31174,0.882737 0.67639,1.84301 1.09571,2.785156 0.009,-0.01073 0.009,-0.02274 0.0195,-0.0332 0.10148,-0.100463 0.20013,-0.208226 0.30078,-0.310547 0.1876,-0.770363 0.39126,-1.511342 0.61523,-2.224609 -0.10364,-0.214536 -0.20436,-0.430256 -0.28515,-0.660156 -0.0923,-0.125678 -0.18672,-0.23596 -0.27735,-0.373047 0.0916,0.238358 0.21829,0.540904 0.27344,0.71289 0.0844,0.263225 -0.2425,-0.488598 -0.33984,-0.755859 z m -0.75196,20.087891 c 0.0257,0.192654 0.24217,2.100161 0.2129,1.302734 -0.071,-0.434215 -0.13825,-0.869063 -0.2129,-1.302734 z m 29.08985,9.05664 c 0.18836,0.749579 0.36101,1.518649 0.5,2.328129 0.031,0.0239 0.0575,0.0534 0.0879,0.0781 -0.14576,-0.9694 -0.3426,-1.76847 -0.58789,-2.406249 z m 1.04883,11.650389 c -0.002,0.30424 -0.009,0.60805 0,0.91211 0.007,0.22656 0.0533,-0.45375 0.0351,-0.67969 -0.004,-0.0514 -0.0276,-0.16762 -0.0351,-0.23242 z m 0.38476,2.76367 c -0.81521,0.19675 -1.62675,0.41051 -2.43945,0.6211 10e-4,0.004 0.002,0.008 0.004,0.0117 0.44022,1.21599 -0.34988,2.55061 -0.5625,3.83593 0.0155,0.29573 0.0345,0.59068 0.0391,0.88672 2e-4,0.0126 -0.0362,0.005 -0.0371,-0.008 -0.0127,-0.17081 0.005,-0.34254 -0.002,-0.51367 -0.003,-0.0791 -0.0398,-0.15783 -0.0293,-0.23633 0.006,-0.0426 0.0222,-0.0862 0.0293,-0.12891 -0.008,-0.15696 -0.0127,-0.31369 -0.0195,-0.4707 -0.54812,-1.34848 -0.7901,-1.96249 -1.17382,-2.91992 -0.46171,0.1241 -0.92353,0.2503 -1.38477,0.37695 0.26783,2.82835 0.36907,6.45169 -0.39453,9.875 1.67509,-1.83057 3.01552,-4.00585 4.67969,-5.86328 0.3648,-1.83488 0.87679,-3.64131 1.29101,-5.4668 z m -6.62695,1.74219 c -1.80088,0.50042 -3.59991,1.00755 -5.40039,1.50977 0.25078,0.18758 0.48333,0.39492 0.66992,0.65429 0.32769,0.45551 -0.27837,0.96455 -0.72656,1.46485 0.68659,1.49205 0.37497,0.96894 -0.48828,2.70312 -0.0812,0.16308 0.21695,-0.29742 0.35351,-0.41797 0.0726,-0.0641 -0.0965,0.16942 -0.1582,0.24414 -0.19744,0.23935 -0.4131,0.46529 -0.61914,0.69727 -0.55168,0.42545 -0.77754,0.65768 -1.44727,0.92383 -0.3178,0.12629 -0.65252,0.20251 -0.98437,0.28515 -0.18734,0.0466 -0.38005,0.0688 -0.57031,0.10157 -0.18756,0.0323 -0.23501,0.0324 -0.28126,0.0351 0.0359,-0.0106 0.0749,-0.0147 0.10743,-0.0332 0.14059,-0.0801 0.22821,-0.15284 0.34179,-0.22852 -0.68509,-0.45246 -1.25173,-0.84085 -1.75586,-1.20117 -2.899,0.38853 -4.32373,-1.20524 -3.99218,-2.78515 -1.14692,0.25322 -2.29642,0.49489 -3.45118,0.70507 0.21239,0.48534 0.40379,0.98026 0.63868,1.45508 0.0688,0.13914 0.16496,0.26614 0.26953,0.38086 0.91126,0.99975 1.51524,2.46909 2.77539,2.96094 3.4959,1.36447 6.74896,2.02679 9.10351,2.38086 2.54309,-1.17712 4.60753,-3.72015 5.52539,-8.80274 0.18548,-1.02694 0.19562,-2.03633 0.0899,-3.0332 z m -20.96875,8.2207 c 0.49166,0.87816 0.98295,1.75662 1.47461,2.63477 0.2246,0.0844 0.44777,0.17205 0.67187,0.25781 -0.68442,-0.95586 -1.40151,-1.91968 -2.14648,-2.89258 z m 4.76758,3.72266 c -0.0725,0.003 -0.19592,0.022 -0.32813,0.041 0.0468,0.0178 0.0938,0.035 0.14063,0.0527 0.28465,0.0464 0.58467,0.093 0.87695,0.14063 -0.41437,-0.18069 -0.49458,-0.24346 -0.68945,-0.23438 z m 1.70703,0.79102 c 0.0125,0.004 0.0246,0.009 0.0371,0.0137 0.1389,0.0476 0.40987,0.0578 0.51562,0.0508 -0.0196,-0.008 -0.039,-0.0158 -0.0586,-0.0234 -0.15996,-0.0217 -0.32311,-0.0373 -0.49414,-0.041 z" /><path
     d="m 334.044,327.904 -57.673,-92.276 -92.276,-57.673 c -4.008,-2.505 -8.644,2.132 -6.14,6.14 l 57.673,92.276 92.276,57.673 c 4.008,2.504 8.644,-2.132 6.14,-6.14 z"
     id="el_4SzOOKl5xr"
     inkscape:connector-curvature="0" /><path
     d="M 256,0 C 114.615,0 0,114.615 0,256 0,397.385 114.615,512 256,512 397.385,512 512,397.385 512,256 512,114.615 397.385,0 256,0 Z m 0,476.69 C 134.116,476.69 35.31,377.884 35.31,256 35.31,134.116 134.116,35.31 256,35.31 c 121.884,0 220.69,98.806 220.69,220.69 0,121.884 -98.806,220.69 -220.69,220.69 z"
     id="el_-rGNT9DI8e"
     inkscape:connector-curvature="0" /><path
     d="M 256,35.31 C 134.116,35.31 35.31,134.116 35.31,256 35.31,377.884 134.116,476.69 256,476.69 377.884,476.69 476.69,377.884 476.69,256 476.69,134.116 377.884,35.31 256,35.31 Z m 0,423.724 C 143.866,459.034 52.966,368.132 52.966,256 52.966,143.866 143.867,52.966 256,52.966 c 112.133,0 203.034,90.9 203.034,203.034 0,112.132 -90.9,203.034 -203.034,203.034 z"
     id="el_iBNOGowErM"
     inkscape:connector-curvature="0" />
    <path
     id="el_KXvFhY4tI7"
     d="M 190.37305,95.150391 C 130.2178,119.98174 87.043636,177.66779 83.271484,245.82031 H 73.138672 c -5.325937,0 -9.644531,4.31859 -9.644531,9.64453 0,5.32594 4.318594,9.64454 9.644531,9.64454 h 10.132812 c 4.871457,88.01508 75.445866,158.59143 163.460936,163.46289 v 10.13085 c 0,5.32595 4.31859,9.64454 9.64453,9.64454 5.32594,0 9.64453,-4.31859 9.64453,-9.64454 v -10.13085 c 88.01507,-4.87146 158.59142,-75.44781 163.4629,-163.46289 h 10.13085 c 5.32594,0 9.64454,-4.3186 9.64454,-9.64454 0,-5.32594 -4.3186,-9.64453 -9.64454,-9.64453 H 429.48438 C 425.72201,177.84483 382.76237,120.28075 322.85156,95.34375 l -5.94726,18.33008 c 49.40653,21.15894 85.5734,67.37877 92.46093,122.63476 -10.02696,0.68938 -17.9707,8.95253 -17.9707,19.1543 0,10.20067 7.94483,18.46579 17.9707,19.15625 -8.6963,69.76813 -64.06499,125.13572 -133.83203,133.83203 -0.69046,-10.02588 -8.95449,-17.96875 -19.15625,-17.96875 -10.20067,0 -18.46579,7.94287 -19.15625,17.96875 -69.76704,-8.69631 -125.13464,-64.06498 -133.83203,-133.83203 10.02696,-0.68936 17.97069,-8.95449 17.97071,-19.15625 0,-10.20067 -7.94484,-18.46383 -17.97071,-19.1543 6.90924,-55.43016 43.28357,-101.7687 92.92969,-122.83593 z" />
    <g
     id="el_Es7pMC8r-q">
     <path
       inkscape:connector-curvature="0"
       id="el_LxtJnH5sBs"
       d="M 363.367,142.551 227.479,227.48 142.55,363.368 c -2.482,3.97 2.112,8.564 6.082,6.082 l 135.887,-84.929 84.929,-135.887 c 2.482,-3.971 -2.111,-8.564 -6.081,-6.083 z" />
    <path
       inkscape:connector-curvature="0"
       id="el_EYnBbzEjyO"
       d="m 227.48,227.48 57.039,57.039 84.929,-135.887 c 2.482,-3.97 -2.112,-8.564 -6.082,-6.082 z" /></g>
   <circle
     cx="256"
     cy="256"
     r="17.655"
     id="el_em1zDXoNxW" />
   <text
     xml:space="preserve"
     x="202.33885"
     y="108.93629"
     id="el_G0W7vw3goLQ">
   <tspan
       sodipodi:role="line"
       id="el_BUCIQ4fiMTa"
       x="202.33885"
       y="108.93629">404</tspan>
  </text>
 </svg>
