<?xml version="1.0" encoding="UTF-8" standalone="no"?>
<svg
   xmlns:dc="http://purl.org/dc/elements/1.1/"
   xmlns:cc="http://creativecommons.org/ns#"
   xmlns:rdf="http://www.w3.org/1999/02/22-rdf-syntax-ns#"
   xmlns:svg="http://www.w3.org/2000/svg"
   xmlns="http://www.w3.org/2000/svg"
   xmlns:sodipodi="http://sodipodi.sourceforge.net/DTD/sodipodi-0.dtd"
   xmlns:inkscape="http://www.inkscape.org/namespaces/inkscape"
   version="1.1"
   preserveAspectRatio="xMidYMid meet"
   viewBox="0 0 445 410"
   width="445"
   height="410"
   id="svg882"
   sodipodi:docname="MountainAuroraLogo.svg"
   inkscape:version="0.92.3 (2405546, 2018-03-11)">
  <metadata
     id="metadata886">
    <rdf:RDF>
      <cc:Work
         rdf:about="">
        <dc:format>image/svg+xml</dc:format>
        <dc:type
           rdf:resource="http://purl.org/dc/dcmitype/StillImage" />
        <dc:title></dc:title>
      </cc:Work>
    </rdf:RDF>
  </metadata>
  <sodipodi:namedview
     pagecolor="#ffffff"
     bordercolor="#666666"
     borderopacity="1"
     objecttolerance="10"
     gridtolerance="10"
     guidetolerance="10"
     inkscape:pageopacity="0"
     inkscape:pageshadow="2"
     inkscape:window-width="1920"
     inkscape:window-height="1053"
     id="namedview884"
     showgrid="false"
     inkscape:zoom="2.0243902"
     inkscape:cx="222.5"
     inkscape:cy="244.51807"
     inkscape:window-x="-9"
     inkscape:window-y="-9"
     inkscape:window-maximized="1"
     inkscape:current-layer="svg882"
     showguides="false" />
  <defs
     id="defs846"
     style="fill:#1bfb9a" />
  <path
     style="color:#000000;font-style:normal;font-variant:normal;font-weight:normal;font-stretch:normal;font-size:medium;line-height:normal;font-family:sans-serif;font-variant-ligatures:normal;font-variant-position:normal;font-variant-caps:normal;font-variant-numeric:normal;font-variant-alternates:normal;font-feature-settings:normal;text-indent:0;text-align:start;text-decoration:none;text-decoration-line:none;text-decoration-style:solid;text-decoration-color:#000000;letter-spacing:normal;word-spacing:normal;text-transform:none;writing-mode:lr-tb;direction:ltr;text-orientation:mixed;dominant-baseline:auto;baseline-shift:baseline;text-anchor:start;white-space:normal;shape-padding:0;clip-rule:nonzero;display:inline;overflow:visible;visibility:visible;opacity:1;isolation:auto;mix-blend-mode:normal;color-interpolation:sRGB;color-interpolation-filters:linearRGB;solid-color:#000000;solid-opacity:1;vector-effect:none;fill:#ffffff;fill-opacity:1;fill-rule:nonzero;stroke:none;stroke-width:20px;stroke-linecap:butt;stroke-linejoin:miter;stroke-miterlimit:4;stroke-dasharray:none;stroke-dashoffset:0;stroke-opacity:1;color-rendering:auto;image-rendering:auto;shape-rendering:auto;text-rendering:auto;enable-background:accumulate"
     d="M 225.16992 60.123047 L 216.52148 75.019531 L 21.201172 411.46094 L 429.16016 411.46094 L 225.16992 60.123047 z M 225.16992 99.957031 L 270.19531 177.50391 L 245.93359 200.41797 L 225.77734 168.75195 L 203.87891 201.25195 L 178.55469 180.25 L 225.16992 99.957031 z M 280.51172 195.27148 L 394.42188 391.46094 L 392.01758 391.46094 L 392.92773 390.68945 L 271.55273 247.53711 L 219.60547 371.14453 L 149.58594 292.47852 L 77.414062 391.46094 L 55.9375 391.46094 L 168.37305 197.78906 L 208.12109 230.75 L 225.30273 205.25 L 242.06445 231.58203 L 280.51172 195.27148 z M 277.36719 285.32227 L 367.36133 391.46094 L 232.76172 391.46094 L 277.36719 285.32227 z M 151.13477 324.30078 L 210.91211 391.46094 L 102.16602 391.46094 L 151.13477 324.30078 z "
     id="path876" />
  <path
     style="fill:none;stroke:#ffffff;stroke-width:20px;stroke-linecap:butt;stroke-linejoin:miter;stroke-opacity:1"
     d="M 225.17,80.04 411.79,401.46 H 38.57 Z"
     id="path890"
     inkscape:connector-curvature="0" />
  <path
     style="fill:#0a0a1e;fill-opacity:1;stroke:#f2f2f2;stroke-width:0.49397591"
     d="m 56.721687,390.94317 c 0,-0.15716 25.142172,-43.59652 55.871493,-96.53193 l 55.8715,-96.2462 14.39657,11.95334 c 7.91812,6.57434 16.73062,13.8869 19.58333,16.25015 2.85271,2.36325 5.40903,4.2963 5.68072,4.29568 0.27169,-6.4e-4 3.77234,-4.94174 7.77922,-10.98026 4.00689,-6.03852 7.79507,-11.61434 8.41817,-12.39072 l 1.13293,-1.41158 8.13002,12.87554 c 4.47151,7.08155 8.27448,12.88499 8.45103,12.89653 0.17655,0.0115 8.78183,-7.98143 19.12284,-17.76215 10.341,-9.78073 18.97697,-17.77875 19.19104,-17.77338 0.43697,0.011 112.92825,193.63394 112.65588,193.9063 -0.0957,0.0957 -27.39543,-31.93567 -60.6661,-71.18079 -33.27068,-39.24512 -60.61141,-71.35634 -60.75719,-71.35827 -0.14578,-0.002 -11.57644,26.94906 -25.40147,59.89108 -13.82502,32.94201 -25.50117,60.63509 -25.947,61.54017 l -0.8106,1.64559 -34.77058,-39.06426 c -19.12382,-21.48535 -34.89792,-39.06428 -35.05354,-39.06428 -0.15563,0 -16.48874,22.22892 -36.2958,49.3976 L 77.291303,391.22892 H 67.006495 c -5.656644,0 -10.284808,-0.12859 -10.284808,-0.28575 z"
     id="path896"
     inkscape:connector-curvature="0" />
  <path
     style="fill:#0a0a1e;fill-opacity:1;stroke:#f2f2f2;stroke-width:0.49397591"
     d="m 106.73383,385.62479 c 34.89339,-47.94905 44.1419,-60.5627 44.41415,-60.57455 0.17814,-0.008 11.84692,12.93425 25.93064,28.76 14.08371,15.82575 27.35168,30.71913 29.48436,33.09639 l 3.87761,4.32229 h -53.8925 -53.89249 z"
     id="path898"
     inkscape:connector-curvature="0" />
  <path
     style="fill:#0a0a1e;fill-opacity:1;stroke:#f2f2f2;stroke-width:0.49397591"
     d="m 234.94732,386.85481 c 18.78016,-44.92345 42.392,-100.82385 42.5816,-100.8108 0.28425,0.0196 88.58411,104.17242 88.83333,104.7821 0.0906,0.22154 -29.85218,0.40281 -66.53943,0.40281 h -66.70409 z"
     id="path900"
     inkscape:connector-curvature="0" />
  <path
     style="fill:#0a0a1e;fill-opacity:1;stroke:#f2f2f2;stroke-width:0.49397591"
     d="m 191.03379,190.34754 -12.15176,-10.13701 23.01923,-39.70534 c 12.66057,-21.83794 23.13037,-39.70579 23.26621,-39.70635 0.20065,-8.2e-4 24.68694,42.00818 40.97173,70.29166 l 3.67656,6.38545 -3.93995,3.75901 c -2.16697,2.06746 -7.52388,7.15479 -11.90423,11.30518 l -7.96428,7.54617 -9.50784,-14.9558 c -5.2293,-8.2257 -9.78464,-15.36219 -10.12297,-15.85887 -0.54597,-0.8015 -1.82897,0.90444 -11.40907,15.17 -5.93666,8.84017 -11.01622,16.06627 -11.2879,16.05798 -0.27169,-0.008 -5.96227,-4.57672 -12.64573,-10.15208 z"
     id="path904"
     inkscape:connector-curvature="0" />
  <path
     style="fill:#1bfb9a;fill-opacity:1;stroke:none;stroke-width:0.49397591"
     d="M 40.30096,269.7789 C 18.636127,261.72671 0.90856655,254.98768 0.90638185,254.80328 c -0.002185,-0.1844 35.06214215,-31.60147 77.92072615,-69.8157 42.858582,-38.21422 77.981422,-69.63186 78.050752,-69.81696 0.0693,-0.18511 -12.82345,1.83346 -28.65061,4.4857 -15.82715,2.65224 -29.008446,4.76744 -29.291751,4.70044 -0.283305,-0.067 33.603231,-23.97819 75.303411,-53.135976 L 250.05743,18.206628 296.76607,12.597275 343.4747,6.9879224 393.72805,3.6499215 C 421.36739,1.8140208 444.09264,0.42316086 444.2286,0.55912159 444.49296,0.82347952 422.42869,57.779275 421.81068,58.427796 c -0.20211,0.212093 -16.91009,1.267275 -37.12884,2.344844 -32.56455,1.73555 -39.42598,1.9594 -60.10172,1.960763 -12.8372,9.88e-4 -23.33599,0.168254 -23.33066,0.372019 0.005,0.203765 8.76844,6.038855 19.47356,12.966867 10.70512,6.928012 19.31446,12.748308 19.13187,12.933989 -0.1826,0.18568 -14.30233,5.354185 -31.37717,11.485562 -17.07485,6.13139 -31.19152,11.23842 -31.37038,11.34896 -0.17886,0.11054 -2.10221,5.11136 -4.2741,11.11294 -2.1719,6.00157 -4.08903,10.91236 -4.26029,10.91285 -0.17126,4.8e-4 -9.923,-16.55966 -21.67054,-36.800325 C 235.15487,76.825602 225.37833,60.26506 225.17675,60.26506 c -0.20158,0 -28.22784,47.9919 -62.28059,106.64867 l -61.91408,106.64867 -9.745432,5.48386 c -5.359985,3.01612 -10.150351,5.45891 -10.645255,5.42843 -0.494905,-0.0305 -18.625599,-6.64359 -40.290433,-14.69579 z"
     id="path928"
     inkscape:connector-curvature="0" />
</svg>
