<?xml version="1.0" encoding="UTF-8" standalone="no"?>
<!-- Created with Inkscape (http://www.inkscape.org/) -->

<svg
   xmlns:dc="http://purl.org/dc/elements/1.1/"
   xmlns:cc="http://creativecommons.org/ns#"
   xmlns:rdf="http://www.w3.org/1999/02/22-rdf-syntax-ns#"
   xmlns:svg="http://www.w3.org/2000/svg"
   xmlns="http://www.w3.org/2000/svg"
   xmlns:xlink="http://www.w3.org/1999/xlink"
   xmlns:sodipodi="http://sodipodi.sourceforge.net/DTD/sodipodi-0.dtd"
   xmlns:inkscape="http://www.inkscape.org/namespaces/inkscape"
   width="250"
   height="250"
   viewBox="0 0 250 250"
   version="1.1"
   id="svg8"
   inkscape:version="0.92.3 (2405546, 2018-03-11)"
   sodipodi:docname="stars-bg.svg">
  <defs
     id="defs2" />
  <sodipodi:namedview
     id="base"
     pagecolor="#ffffff"
     bordercolor="#666666"
     borderopacity="1.0"
     inkscape:pageopacity="0.0"
     inkscape:pageshadow="2"
     inkscape:zoom="1.66"
     inkscape:cx="207.32315"
     inkscape:cy="151.78934"
     inkscape:document-units="mm"
     inkscape:current-layer="layer1"
     showgrid="false"
     showguides="false"
     inkscape:window-width="1920"
     inkscape:window-height="1053"
     inkscape:window-x="-9"
     inkscape:window-y="-9"
     inkscape:window-maximized="1" />
  <metadata
     id="metadata5">
    <rdf:RDF>
      <cc:Work
         rdf:about="">
        <dc:format>image/svg+xml</dc:format>
        <dc:type
           rdf:resource="http://purl.org/dc/dcmitype/StillImage" />
        <dc:title></dc:title>
      </cc:Work>
    </rdf:RDF>
  </metadata>
  <style>

    use:nth-child(1n+1) {
      animation: glow 4.7s infinite forwards;
      animation-delay: 1s;
    }

    use:nth-child(2n+1) {
      animation: glow 1.3s infinite forwards;
      animation-delay: 4s;
    }

    use:nth-child(3n+1) {
      animation: glow 2.1s infinite forwards;
      animation-delay: 7s;
    }

    use:nth-child(4n+1) {
      animation: glow 7.3s infinite forwards;
      animation-delay: 3s;
    }

    use:nth-child(5n+1) {
      animation: glow 4.4s infinite forwards;
      animation-delay: 2s;
    }

    use:nth-child(6n+1) {
      animation: glow 3.8s infinite forwards;
      animation-delay: 9s;
    }

    use:nth-child(7n+1) {
      animation: glow 2.2s infinite forwards;
      animation-delay: 5s;
    }

    use:nth-child(8n+1) {
      animation: glow 2.8s infinite forwards;
      animation-delay: 6s;
    }

    use:nth-child(9n+1) {
      animation: glow 2.1s infinite forwards;
      animation-delay: 8s;
    }

    use:nth-child(10n+1) {
      animation: glow 3.2s infinite forwards;
      animation-delay: 2s;
    }

    use:nth-child(11n+1) {
      animation: glow 4.3s infinite forwards;
      animation-delay: 6s;
    }

    use:nth-child(12n+1) {
      animation: glow 1s infinite forwards;
      animation-delay: 3.2s;
    }

    use:nth-child(13n+1) {
      animation: glow 3.2s infinite forwards;
      animation-delay: 1.7s;
    }

    use:nth-child(14n+1) {
      animation: glow 2.4s infinite forwards;
      animation-delay: 2.6s;
    }

    use:nth-child(15n+1) {
      animation: glow 6s infinite forwards;
      animation-delay: 0.2s;
    }

    @keyframes glow {
      6% { opacity: 1 }
      12% { opacity: .4 }
      18% { opacity: .9 }
      24% { opacity: .5 }
      30% { opacity: 1' }
      100% { opacity: 1' }
    }

    @keyframes stars {
      0% { transform: rotate(0deg) }
      100% { transform: rotate(360deg) }
    }

    .stars {
      animation: stars 10s linear infinite
      transform-origin: left;
    }
  </style>
  <g
     inkscape:label="Layer 1"
     inkscape:groupmode="layer"
     id="layer1">
    <circle
       style="fill:#623cd8;fill-opacity:1;stroke:#f2f2f2;stroke-width:0.15517098"
       id="path815"
       cx="9.8373489"
       cy="23.897589"
       r="0.92241448"/>
    <use
       id="use1487"
       inkscape:spray-origin="#path815"
       xlink:href="#path815"
       transform="matrix(1.2164161,0,0,1.2164161,117.28046,-20.832584)"
       x="0"
       y="0"
       width="100%"
       height="100%" />
    <use
       id="use1489"
       inkscape:spray-origin="#path815"
       xlink:href="#path815"
       transform="matrix(1.0530307,0,0,1.0530307,4.3765015,48.464721)"
       x="0"
       y="0"
       width="100%"
       height="100%" />
    <use
       id="use1491"
       inkscape:spray-origin="#path815"
       xlink:href="#path815"
       transform="matrix(1.2306271,0,0,1.2306271,82.499641,-10.490472)"
       x="0"
       y="0"
       width="100%"
       height="100%" />
    <use
       id="use1493"
       inkscape:spray-origin="#path815"
       xlink:href="#path815"
       transform="matrix(0.83166608,0,0,0.83166608,5.2194888,-8.7044822)"
       x="0"
       y="0"
       width="100%"
       height="100%" />
    <use
       id="use1495"
       inkscape:spray-origin="#path815"
       xlink:href="#path815"
       transform="matrix(0.80029459,0,0,0.80029459,77.120283,86.828212)"
       x="0"
       y="0"
       width="100%"
       height="100%" />
    <use
       id="use1497"
       inkscape:spray-origin="#path815"
       xlink:href="#path815"
       transform="matrix(1.2588512,0,0,1.2588512,7.4798568,19.977355)"
       x="0"
       y="0"
       width="100%"
       height="100%" />
    <use
       id="use1499"
       inkscape:spray-origin="#path815"
       xlink:href="#path815"
       transform="matrix(0.88583845,0,0,0.88583845,62.928597,35.750292)"
       x="0"
       y="0"
       width="100%"
       height="100%" />
    <use
       id="use1501"
       inkscape:spray-origin="#path815"
       xlink:href="#path815"
       transform="matrix(0.87571449,0,0,0.87571449,55.10285,30.664615)"
       x="0"
       y="0"
       width="100%"
       height="100%" />
    <use
       id="use1503"
       inkscape:spray-origin="#path815"
       xlink:href="#path815"
       transform="matrix(1.3330187,0,0,1.3330187,99.357462,-15.839135)"
       x="0"
       y="0"
       width="100%"
       height="100%" />
    <use
       id="use1505"
       inkscape:spray-origin="#path815"
       xlink:href="#path815"
       transform="matrix(0.98809123,0,0,0.98809123,20.55072,22.097836)"
       x="0"
       y="0"
       width="100%"
       height="100%" />
    <use
       id="use1507"
       inkscape:spray-origin="#path815"
       xlink:href="#path815"
       transform="matrix(1.2727034,0,0,1.2727034,53.057653,-12.461138)"
       x="0"
       y="0"
       width="100%"
       height="100%" />
    <use
       id="use1509"
       inkscape:spray-origin="#path815"
       xlink:href="#path815"
       transform="matrix(0.81108663,0,0,0.81108663,81.442958,33.350352)"
       x="0"
       y="0"
       width="100%"
       height="100%" />
    <use
       id="use1511"
       inkscape:spray-origin="#path815"
       xlink:href="#path815"
       transform="matrix(0.82031428,0,0,0.82031428,90.484281,90.407277)"
       x="0"
       y="0"
       width="100%"
       height="100%" />
    <use
       id="use1513"
       inkscape:spray-origin="#path815"
       xlink:href="#path815"
       transform="matrix(1.0641776,0,0,1.0641776,61.004341,71.373523)"
       x="0"
       y="0"
       width="100%"
       height="100%" />
    <use
       id="use1515"
       inkscape:spray-origin="#path815"
       xlink:href="#path815"
       transform="matrix(1.2090582,0,0,1.2090582,144.03278,22.243118)"
       x="0"
       y="0"
       width="100%"
       height="100%" />
    <use
       id="use1517"
       inkscape:spray-origin="#path815"
       xlink:href="#path815"
       transform="matrix(0.86842174,0,0,0.86842174,105.10896,37.063483)"
       x="0"
       y="0"
       width="100%"
       height="100%" />
    <use
       id="use1519"
       inkscape:spray-origin="#path815"
       xlink:href="#path815"
       transform="matrix(0.96348911,0,0,0.96348911,72.3567,40.858633)"
       x="0"
       y="0"
       width="100%"
       height="100%" />
    <use
       id="use1521"
       inkscape:spray-origin="#path815"
       xlink:href="#path815"
       transform="matrix(1.0660768,0,0,1.0660768,105.11204,50.865202)"
       x="0"
       y="0"
       width="100%"
       height="100%" />
    <use
       id="use1523"
       inkscape:spray-origin="#path815"
       xlink:href="#path815"
       transform="matrix(0.67206472,0,0,0.67206472,205.64956,145.36484)"
       x="0"
       y="0"
       width="100%"
       height="100%" />
    <use
       id="use1525"
       inkscape:spray-origin="#path815"
       xlink:href="#path815"
       transform="matrix(1.0617138,0,0,1.0617138,196.51407,42.377319)"
       x="0"
       y="0"
       width="100%"
       height="100%" />
    <use
       id="use1527"
       inkscape:spray-origin="#path815"
       xlink:href="#path815"
       transform="matrix(1.0638387,0,0,1.0638387,146.58562,75.542996)"
       x="0"
       y="0"
       width="100%"
       height="100%" />
    <use
       id="use1529"
       inkscape:spray-origin="#path815"
       xlink:href="#path815"
       transform="matrix(1.3354015,0,0,1.3354015,84.552541,63.874056)"
       x="0"
       y="0"
       width="100%"
       height="100%" />
    <use
       id="use1531"
       inkscape:spray-origin="#path815"
       xlink:href="#path815"
       transform="matrix(0.67592511,0,0,0.67592511,210.00897,28.03085)"
       x="0"
       y="0"
       width="100%"
       height="100%" />
    <use
       id="use1533"
       inkscape:spray-origin="#path815"
       xlink:href="#path815"
       transform="matrix(0.92543412,0,0,0.92543412,203.7816,36.333304)"
       x="0"
       y="0"
       width="100%"
       height="100%" />
    <use
       id="use1535"
       inkscape:spray-origin="#path815"
       xlink:href="#path815"
       transform="matrix(0.85644296,0,0,0.85644296,127.85455,104.20325)"
       x="0"
       y="0"
       width="100%"
       height="100%" />
    <use
       id="use1537"
       inkscape:spray-origin="#path815"
       xlink:href="#path815"
       transform="matrix(0.79543514,0,0,0.79543514,197.1722,100.26801)"
       x="0"
       y="0"
       width="100%"
       height="100%" />
    <use
       id="use1539"
       inkscape:spray-origin="#path815"
       xlink:href="#path815"
       transform="matrix(1.0879331,0,0,1.0879331,185.4716,26.456434)"
       x="0"
       y="0"
       width="100%"
       height="100%" />
    <use
       id="use1541"
       inkscape:spray-origin="#path815"
       xlink:href="#path815"
       transform="matrix(0.90584362,0,0,0.90584362,199.40137,29.636327)"
       x="0"
       y="0"
       width="100%"
       height="100%" />
    <use
       id="use1543"
       inkscape:spray-origin="#path815"
       xlink:href="#path815"
       transform="matrix(0.74921168,0,0,0.74921168,139.04629,119.33387)"
       x="0"
       y="0"
       width="100%"
       height="100%" />
    <use
       id="use1545"
       inkscape:spray-origin="#path815"
       xlink:href="#path815"
       transform="matrix(1.3333304,0,0,1.3333304,163.37648,144.00429)"
       x="0"
       y="0"
       width="100%"
       height="100%" />
    <use
       id="use1547"
       inkscape:spray-origin="#path815"
       xlink:href="#path815"
       transform="matrix(1.1163694,0,0,1.1163694,134.63138,109.30834)"
       x="0"
       y="0"
       width="100%"
       height="100%" />
    <use
       id="use1549"
       inkscape:spray-origin="#path815"
       xlink:href="#path815"
       transform="matrix(1.225807,0,0,1.225807,209.9269,62.071201)"
       x="0"
       y="0"
       width="100%"
       height="100%" />
    <use
       id="use1551"
       inkscape:spray-origin="#path815"
       xlink:href="#path815"
       transform="matrix(1.2607449,0,0,1.2607449,184.45863,15.775106)"
       x="0"
       y="0"
       width="100%"
       height="100%" />
    <use
       id="use1553"
       inkscape:spray-origin="#path815"
       xlink:href="#path815"
       transform="matrix(1.1516991,0,0,1.1516991,188.40375,149.69372)"
       x="0"
       y="0"
       width="100%"
       height="100%" />
    <use
       id="use1555"
       inkscape:spray-origin="#path815"
       xlink:href="#path815"
       transform="matrix(0.87740319,0,0,0.87740319,114.17612,128.06476)"
       x="0"
       y="0"
       width="100%"
       height="100%" />
    <use
       id="use1557"
       inkscape:spray-origin="#path815"
       xlink:href="#path815"
       transform="matrix(0.84041208,0,0,0.84041208,190.26426,131.53564)"
       x="0"
       y="0"
       width="100%"
       height="100%" />
    <use
       id="use1559"
       inkscape:spray-origin="#path815"
       xlink:href="#path815"
       transform="matrix(1.2340966,0,0,1.2340966,118.75468,74.134003)"
       x="0"
       y="0"
       width="100%"
       height="100%" />
    <use
       id="use1561"
       inkscape:spray-origin="#path815"
       xlink:href="#path815"
       transform="matrix(0.74420466,0,0,0.74420466,169.90725,203.80809)"
       x="0"
       y="0"
       width="100%"
       height="100%" />
    <use
       id="use1563"
       inkscape:spray-origin="#path815"
       xlink:href="#path815"
       transform="matrix(0.89812131,0,0,0.89812131,138.73803,160.15112)"
       x="0"
       y="0"
       width="100%"
       height="100%" />
    <use
       id="use1565"
       inkscape:spray-origin="#path815"
       xlink:href="#path815"
       transform="matrix(0.8121738,0,0,0.8121738,81.795572,114.49106)"
       x="0"
       y="0"
       width="100%"
       height="100%" />
    <use
       id="use1567"
       inkscape:spray-origin="#path815"
       xlink:href="#path815"
       transform="matrix(0.88190947,0,0,0.88190947,143.75876,177.13891)"
       x="0"
       y="0"
       width="100%"
       height="100%" />
    <use
       id="use1569"
       inkscape:spray-origin="#path815"
       xlink:href="#path815"
       transform="matrix(1.0532521,0,0,1.0532521,173.03192,117.12365)"
       x="0"
       y="0"
       width="100%"
       height="100%" />
    <use
       id="use1571"
       inkscape:spray-origin="#path815"
       xlink:href="#path815"
       transform="matrix(1.2250706,0,0,1.2250706,98.701696,145.97297)"
       x="0"
       y="0"
       width="100%"
       height="100%" />
    <use
       id="use1573"
       inkscape:spray-origin="#path815"
       xlink:href="#path815"
       transform="matrix(1.1472415,0,0,1.1472415,106.85468,130.53234)"
       x="0"
       y="0"
       width="100%"
       height="100%" />
    <use
       id="use1575"
       inkscape:spray-origin="#path815"
       xlink:href="#path815"
       transform="matrix(0.80482855,0,0,0.80482855,40.180793,183.30313)"
       x="0"
       y="0"
       width="100%"
       height="100%" />
    <use
       id="use1577"
       inkscape:spray-origin="#path815"
       xlink:href="#path815"
       transform="matrix(1.129787,0,0,1.129787,112.49742,98.173845)"
       x="0"
       y="0"
       width="100%"
       height="100%" />
    <use
       id="use1579"
       inkscape:spray-origin="#path815"
       xlink:href="#path815"
       transform="matrix(0.91284209,0,0,0.91284209,58.334524,102.31424)"
       x="0"
       y="0"
       width="100%"
       height="100%" />
    <use
       id="use1581"
       inkscape:spray-origin="#path815"
       xlink:href="#path815"
       transform="matrix(0.78028445,0,0,0.78028445,63.441127,207.84506)"
       x="0"
       y="0"
       width="100%"
       height="100%" />
    <use
       id="use1583"
       inkscape:spray-origin="#path815"
       xlink:href="#path815"
       transform="matrix(0.94791538,0,0,0.94791538,104.51522,205.05229)"
       x="0"
       y="0"
       width="100%"
       height="100%" />
    <use
       id="use1585"
       inkscape:spray-origin="#path815"
       xlink:href="#path815"
       transform="matrix(1.1554948,0,0,1.1554948,13.432351,185.67601)"
       x="0"
       y="0"
       width="100%"
       height="100%" />
    <use
       id="use1587"
       inkscape:spray-origin="#path815"
       xlink:href="#path815"
       transform="matrix(0.74421191,0,0,0.74421191,2.9250145,183.78015)"
       x="0"
       y="0"
       width="100%"
       height="100%" />
    <use
       id="use1589"
       inkscape:spray-origin="#path815"
       xlink:href="#path815"
       transform="matrix(0.64192483,0,0,0.64192483,140.66858,194.89183)"
       x="0"
       y="0"
       width="100%"
       height="100%" />
    <use
       id="use1591"
       inkscape:spray-origin="#path815"
       xlink:href="#path815"
       transform="matrix(1.0838415,0,0,1.0838415,102.04424,112.65113)"
       x="0"
       y="0"
       width="100%"
       height="100%" />
    <use
       id="use1593"
       inkscape:spray-origin="#path815"
       xlink:href="#path815"
       transform="matrix(1.2651271,0,0,1.2651271,91.222876,212.72039)"
       x="0"
       y="0"
       width="100%"
       height="100%" />
    <use
       id="use1595"
       inkscape:spray-origin="#path815"
       xlink:href="#path815"
       transform="matrix(0.8878938,0,0,0.8878938,116.17134,203.99675)"
       x="0"
       y="0"
       width="100%"
       height="100%" />
    <use
       id="use1597"
       inkscape:spray-origin="#path815"
       xlink:href="#path815"
       transform="matrix(0.97448797,0,0,0.97448797,84.336155,130.14796)"
       x="0"
       y="0"
       width="100%"
       height="100%" />
    <use
       id="use1599"
       inkscape:spray-origin="#path815"
       xlink:href="#path815"
       transform="matrix(0.93577739,0,0,0.93577739,2.459085,148.05515)"
       x="0"
       y="0"
       width="100%"
       height="100%" />
    <use
       id="use1601"
       inkscape:spray-origin="#path815"
       xlink:href="#path815"
       transform="matrix(0.69185792,0,0,0.69185792,30.742633,139.3598)"
       x="0"
       y="0"
       width="100%"
       height="100%" />
    <use
       id="use1603"
       inkscape:spray-origin="#path815"
       xlink:href="#path815"
       transform="matrix(1.3024761,0,0,1.3024761,32.436761,130.16463)"
       x="0"
       y="0"
       width="100%"
       height="100%" />
    <use
       id="use1605"
       inkscape:spray-origin="#path815"
       xlink:href="#path815"
       transform="matrix(1.2270685,0,0,1.2270685,13.042568,192.3702)"
       x="0"
       y="0"
       width="100%"
       height="100%" />
    <use
       id="use1607"
       inkscape:spray-origin="#path815"
       xlink:href="#path815"
       transform="matrix(1.0617386,0,0,1.0617386,38.509484,206.48145)"
       x="0"
       y="0"
       width="100%"
       height="100%" />
    <use
       id="use1609"
       inkscape:spray-origin="#path815"
       xlink:href="#path815"
       transform="matrix(0.90219271,0,0,0.90219271,83.107406,192.2153)"
       x="0"
       y="0"
       width="100%"
       height="100%" />
    <use
       id="use1611"
       inkscape:spray-origin="#path815"
       xlink:href="#path815"
       transform="matrix(1.0412539,0,0,1.0412539,11.145646,165.75303)"
       x="0"
       y="0"
       width="100%"
       height="100%" />
    <use
       id="use1613"
       inkscape:spray-origin="#path815"
       xlink:href="#path815"
       transform="matrix(0.84159435,0,0,0.84159435,84.256505,165.58469)"
       x="0"
       y="0"
       width="100%"
       height="100%" />
    <use
       id="use1615"
       inkscape:spray-origin="#path815"
       xlink:href="#path815"
       transform="matrix(0.95000782,0,0,0.95000782,139.75175,137.95443)"
       x="0"
       y="0"
       width="100%"
       height="100%" />
    <use
       id="use1617"
       inkscape:spray-origin="#path815"
       xlink:href="#path815"
       transform="matrix(1.0326375,0,0,1.0326375,49.292113,105.04977)"
       x="0"
       y="0"
       width="100%"
       height="100%" />
    <use
       id="use1619"
       inkscape:spray-origin="#path815"
       xlink:href="#path815"
       transform="matrix(0.67315385,0,0,0.67315385,84.812699,130.98562)"
       x="0"
       y="0"
       width="100%"
       height="100%" />
    <use
       id="use1621"
       inkscape:spray-origin="#path815"
       xlink:href="#path815"
       transform="matrix(0.77096286,0,0,0.77096286,106.49027,118.58311)"
       x="0"
       y="0"
       width="100%"
       height="100%" />
    <use
       id="use1623"
       inkscape:spray-origin="#path815"
       xlink:href="#path815"
       transform="matrix(1.010379,0,0,1.010379,9.5390036,197.05456)"
       x="0"
       y="0"
       width="100%"
       height="100%" />
    <use
       id="use1625"
       inkscape:spray-origin="#path815"
       xlink:href="#path815"
       transform="matrix(1.0205204,0,0,1.0205204,111.00666,122.65703)"
       x="0"
       y="0"
       width="100%"
       height="100%" />
    <use
       id="use1627"
       inkscape:spray-origin="#path815"
       xlink:href="#path815"
       transform="matrix(1.2651182,0,0,1.2651182,39.202397,190.34124)"
       x="0"
       y="0"
       width="100%"
       height="100%" />
    <use
       id="use1629"
       inkscape:spray-origin="#path815"
       xlink:href="#path815"
       transform="matrix(0.69983327,0,0,0.69983327,22.543048,142.71104)"
       x="0"
       y="0"
       width="100%"
       height="100%" />
    <use
       id="use1631"
       inkscape:spray-origin="#path815"
       xlink:href="#path815"
       transform="matrix(1.2375649,0,0,1.2375649,43.172164,69.041455)"
       x="0"
       y="0"
       width="100%"
       height="100%" />
    <use
       id="use1633"
       inkscape:spray-origin="#path815"
       xlink:href="#path815"
       transform="matrix(1.0135379,0,0,1.0135379,40.468833,76.384937)"
       x="0"
       y="0"
       width="100%"
       height="100%" />
    <use
       id="use1635"
       inkscape:spray-origin="#path815"
       xlink:href="#path815"
       transform="matrix(1.2198835,0,0,1.2198835,57.283153,18.201007)"
       x="0"
       y="0"
       width="100%"
       height="100%" />
    <use
       id="use1637"
       inkscape:spray-origin="#path815"
       xlink:href="#path815"
       transform="matrix(0.82897728,0,0,0.82897728,12.374156,36.090191)"
       x="0"
       y="0"
       width="100%"
       height="100%" />
    <use
       id="use1639"
       inkscape:spray-origin="#path815"
       xlink:href="#path815"
       transform="matrix(0.79115584,0,0,0.79115584,18.949417,111.32632)"
       x="0"
       y="0"
       width="100%"
       height="100%" />
    <use
       id="use1641"
       inkscape:spray-origin="#path815"
       xlink:href="#path815"
       transform="matrix(1.1114968,0,0,1.1114968,38.753023,83.889594)"
       x="0"
       y="0"
       width="100%"
       height="100%" />
    <use
       id="use1643"
       inkscape:spray-origin="#path815"
       xlink:href="#path815"
       transform="matrix(0.95775711,0,0,0.95775711,42.536292,60.354684)"
       x="0"
       y="0"
       width="100%"
       height="100%" />
    <use
       id="use1645"
       inkscape:spray-origin="#path815"
       xlink:href="#path815"
       transform="matrix(1.1151133,0,0,1.1151133,16.597942,111.25396)"
       x="0"
       y="0"
       width="100%"
       height="100%" />
    <use
       id="use1647"
       inkscape:spray-origin="#path815"
       xlink:href="#path815"
       transform="matrix(0.79971522,0,0,0.79971522,-4.7203034,90.999865)"
       x="0"
       y="0"
       width="100%"
       height="100%" />
    <use
       id="use1649"
       inkscape:spray-origin="#path815"
       xlink:href="#path815"
       transform="matrix(0.74006709,0,0,0.74006709,44.783269,158.03701)"
       x="0"
       y="0"
       width="100%"
       height="100%" />
    <use
       id="use1651"
       inkscape:spray-origin="#path815"
       xlink:href="#path815"
       transform="matrix(0.66575704,0,0,0.66575704,110.68803,179.61957)"
       x="0"
       y="0"
       width="100%"
       height="100%" />
    <use
       id="use1653"
       inkscape:spray-origin="#path815"
       xlink:href="#path815"
       transform="matrix(0.79045959,0,0,0.79045959,-4.8943428,102.2958)"
       x="0"
       y="0"
       width="100%"
       height="100%" />
    <use
       id="use1655"
       inkscape:spray-origin="#path815"
       xlink:href="#path815"
       transform="matrix(1.2567991,0,0,1.2567991,41.925599,38.63991)"
       x="0"
       y="0"
       width="100%"
       height="100%" />
    <use
       id="use1657"
       inkscape:spray-origin="#path815"
       xlink:href="#path815"
       transform="matrix(0.76244024,0,0,0.76244024,35.334307,126.59843)"
       x="0"
       y="0"
       width="100%"
       height="100%" />
    <use
       id="use1659"
       inkscape:spray-origin="#path815"
       xlink:href="#path815"
       transform="matrix(1.0321359,0,0,1.0321359,53.109798,157.9016)"
       x="0"
       y="0"
       width="100%"
       height="100%" />
    <use
       id="use1661"
       inkscape:spray-origin="#path815"
       xlink:href="#path815"
       transform="matrix(1.1900709,0,0,1.1900709,30.770515,-8.6079643)"
       x="0"
       y="0"
       width="100%"
       height="100%" />
    <use
       id="use1663"
       inkscape:spray-origin="#path815"
       xlink:href="#path815"
       transform="matrix(0.7117385,0,0,0.7117385,8.9616745,83.019306)"
       x="0"
       y="0"
       width="100%"
       height="100%" />
    <use
       id="use1665"
       inkscape:spray-origin="#path815"
       xlink:href="#path815"
       transform="matrix(1.2939769,0,0,1.2939769,12.687928,51.077067)"
       x="0"
       y="0"
       width="100%"
       height="100%" />
    <use
       id="use1667"
       inkscape:spray-origin="#path815"
       xlink:href="#path815"
       transform="matrix(0.7657022,0,0,0.7657022,23.056996,81.505933)"
       x="0"
       y="0"
       width="100%"
       height="100%" />
    <use
       id="use1669"
       inkscape:spray-origin="#path815"
       xlink:href="#path815"
       transform="matrix(0.78338139,0,0,0.78338139,67.642279,65.724381)"
       x="0"
       y="0"
       width="100%"
       height="100%" />
    <use
       id="use1671"
       inkscape:spray-origin="#path815"
       xlink:href="#path815"
       transform="matrix(0.92291895,0,0,0.92291895,44.696031,130.63247)"
       x="0"
       y="0"
       width="100%"
       height="100%" />
    <use
       id="use1673"
       inkscape:spray-origin="#path815"
       xlink:href="#path815"
       transform="matrix(1.1988422,0,0,1.1988422,219.98003,187.26226)"
       x="0"
       y="0"
       width="100%"
       height="100%" />
    <use
       id="use1675"
       inkscape:spray-origin="#path815"
       xlink:href="#path815"
       transform="matrix(1.1267924,0,0,1.1267924,221.08186,178.84308)"
       x="0"
       y="0"
       width="100%"
       height="100%" />
    <use
       id="use1677"
       inkscape:spray-origin="#path815"
       xlink:href="#path815"
       transform="matrix(0.77450129,0,0,0.77450129,177.8833,84.705657)"
       x="0"
       y="0"
       width="100%"
       height="100%" />
    <use
       id="use1679"
       inkscape:spray-origin="#path815"
       xlink:href="#path815"
       transform="matrix(0.88951502,0,0,0.88951502,155.65563,195.03278)"
       x="0"
       y="0"
       width="100%"
       height="100%" />
    <use
       id="use1681"
       inkscape:spray-origin="#path815"
       xlink:href="#path815"
       transform="matrix(1.0370004,0,0,1.0370004,218.08809,159.6517)"
       x="0"
       y="0"
       width="100%"
       height="100%" />
    <use
       id="use1683"
       inkscape:spray-origin="#path815"
       xlink:href="#path815"
       transform="matrix(0.79324268,0,0,0.79324268,166.60545,171.41161)"
       x="0"
       y="0"
       width="100%"
       height="100%" />
    <use
       id="use1685"
       inkscape:spray-origin="#path815"
       xlink:href="#path815"
       transform="matrix(1.1964093,0,0,1.1964093,188.21967,209.57613)"
       x="0"
       y="0"
       width="100%"
       height="100%" />
    <use
       id="use1687"
       inkscape:spray-origin="#path815"
       xlink:href="#path815"
       transform="matrix(0.85005989,0,0,0.85005989,184.81676,172.52515)"
       x="0"
       y="0"
       width="100%"
       height="100%" />
    <use
       id="use1689"
       inkscape:spray-origin="#path815"
       xlink:href="#path815"
       transform="matrix(0.83493623,0,0,0.83493623,221.05233,128.13428)"
       x="0"
       y="0"
       width="100%"
       height="100%" />
    <use
       id="use1691"
       inkscape:spray-origin="#path815"
       xlink:href="#path815"
       transform="matrix(1.1535043,0,0,1.1535043,191.5809,185.73645)"
       x="0"
       y="0"
       width="100%"
       height="100%" />
    <use
       id="use1693"
       inkscape:spray-origin="#path815"
       xlink:href="#path815"
       transform="matrix(0.8650625,0,0,0.8650625,150.8155,215.53491)"
       x="0"
       y="0"
       width="100%"
       height="100%" />
    <use
       id="use1713"
       inkscape:spray-origin="#path815"
       xlink:href="#path815"
       transform="matrix(0.80249621,0,0,0.80249621,158.14469,115.59161)"
       x="0"
       y="0"
       width="100%"
       height="100%" />
    <use
       id="use1715"
       inkscape:spray-origin="#path815"
       xlink:href="#path815"
       transform="matrix(0.85271768,0,0,0.85271768,139.46608,76.258817)"
       x="0"
       y="0"
       width="100%"
       height="100%" />
    <use
       id="use1717"
       inkscape:spray-origin="#path815"
       xlink:href="#path815"
       transform="matrix(1.310482,0,0,1.310482,140.6717,32.299126)"
       x="0"
       y="0"
       width="100%"
       height="100%" />
    <use
       id="use1719"
       inkscape:spray-origin="#path815"
       xlink:href="#path815"
       transform="matrix(0.73851565,0,0,0.73851565,186.34419,28.961313)"
       x="0"
       y="0"
       width="100%"
       height="100%" />
    <use
       id="use1721"
       inkscape:spray-origin="#path815"
       xlink:href="#path815"
       transform="matrix(1.3424343,0,0,1.3424343,160.48907,7.3423989)"
       x="0"
       y="0"
       width="100%"
       height="100%" />
    <use
       id="use1723"
       inkscape:spray-origin="#path815"
       xlink:href="#path815"
       transform="matrix(0.7085949,0,0,0.7085949,130.4905,16.744357)"
       x="0"
       y="0"
       width="100%"
       height="100%" />
    <use
       id="use1725"
       inkscape:spray-origin="#path815"
       xlink:href="#path815"
       transform="matrix(0.96453781,0,0,0.96453781,171.51495,-18.688604)"
       x="0"
       y="0"
       width="100%"
       height="100%" />
    <use
       id="use1727"
       inkscape:spray-origin="#path815"
       xlink:href="#path815"
       transform="matrix(0.83943891,0,0,0.83943891,222.12669,89.000648)"
       x="0"
       y="0"
       width="100%"
       height="100%" />
    <use
       id="use1729"
       inkscape:spray-origin="#path815"
       xlink:href="#path815"
       transform="matrix(1.2969258,0,0,1.2969258,206.96411,-14.291775)"
       x="0"
       y="0"
       width="100%"
       height="100%" />
    <use
       id="use1731"
       inkscape:spray-origin="#path815"
       xlink:href="#path815"
       transform="matrix(0.88387055,0,0,0.88387055,104.77453,23.175105)"
       x="0"
       y="0"
       width="100%"
       height="100%" />
    <use
       id="use1733"
       inkscape:spray-origin="#path815"
       xlink:href="#path815"
       transform="matrix(0.98794086,0,0,0.98794086,172.12667,50.28657)"
       x="0"
       y="0"
       width="100%"
       height="100%" />
    <use
       id="use1735"
       inkscape:spray-origin="#path815"
       xlink:href="#path815"
       transform="matrix(0.76931054,0,0,0.76931054,173.11061,38.360059)"
       x="0"
       y="0"
       width="100%"
       height="100%" />
    <use
       id="use1737"
       inkscape:spray-origin="#path815"
       xlink:href="#path815"
       transform="matrix(0.83201944,0,0,0.83201944,143.43504,28.527398)"
       x="0"
       y="0"
       width="100%"
       height="100%" />
    <use
       id="use1739"
       inkscape:spray-origin="#path815"
       xlink:href="#path815"
       transform="matrix(1.0788622,0,0,1.0788622,131.71569,14.662467)"
       x="0"
       y="0"
       width="100%"
       height="100%" />
    <use
       id="use1741"
       inkscape:spray-origin="#path815"
       xlink:href="#path815"
       transform="matrix(0.96656552,0,0,0.96656552,225.51865,13.906416)"
       x="0"
       y="0"
       width="100%"
       height="100%" />
  </g>
</svg>
