<svg xmlns:dc="http://purl.org/dc/elements/1.1/" xmlns:cc="http://creativecommons.org/ns#" xmlns:rdf="http://www.w3.org/1999/02/22-rdf-syntax-ns#" xmlns:svg="http://www.w3.org/2000/svg" xmlns="http://www.w3.org/2000/svg" xmlns:sodipodi="http://sodipodi.sourceforge.net/DTD/sodipodi-0.dtd" xmlns:inkscape="http://www.inkscape.org/namespaces/inkscape" viewBox="0 0 300 300" version="1.1" id="el_OFhoQNDUj" inkscape:version="0.92.3 (2405546, 2018-03-11)" sodipodi:docname="earth-comm.svg"><style>@-webkit-keyframes el_qz4GTeAoV0v_Animation {
      17.39% {
          opacity: 0;
      }
      39.13% {
          opacity: 1;
      }
      47.83% {
          opacity: 0;
      }
      86.96% {
          opacity: 0;
      }
      0% {
          opacity: 0;
      }
      100% {
          opacity: 0;
      }
  }

  @keyframes el_qz4GTeAoV0v_Animation {
      17.39% {
          opacity: 0;
      }
      39.13% {
          opacity: 1;
      }
      47.83% {
          opacity: 0;
      }
      86.96% {
          opacity: 0;
      }
      0% {
          opacity: 0;
      }
      100% {
          opacity: 0;
      }
  }

  @-webkit-keyframes el_qz4GTeAoV0v_pJKESv2QH_Animation {
      17.39% {
          -webkit-transform: scale(10, 10);
          transform: scale(10, 10);
      }
      39.13% {
          -webkit-transform: scale(2.5, 2.5);
          transform: scale(2.5, 2.5);
      }
      47.83% {
          -webkit-transform: scale(0, 0);
          transform: scale(0, 0);
      }
      86.96% {
          -webkit-transform: scale(10, 10);
          transform: scale(10, 10);
      }
      0% {
          -webkit-transform: scale(10, 10);
          transform: scale(10, 10);
      }
      100% {
          -webkit-transform: scale(10, 10);
          transform: scale(10, 10);
      }
  }

  @keyframes el_qz4GTeAoV0v_pJKESv2QH_Animation {
      17.39% {
          -webkit-transform: scale(10, 10);
          transform: scale(10, 10);
      }
      39.13% {
          -webkit-transform: scale(2.5, 2.5);
          transform: scale(2.5, 2.5);
      }
      47.83% {
          -webkit-transform: scale(0, 0);
          transform: scale(0, 0);
      }
      86.96% {
          -webkit-transform: scale(10, 10);
          transform: scale(10, 10);
      }
      0% {
          -webkit-transform: scale(10, 10);
          transform: scale(10, 10);
      }
      100% {
          -webkit-transform: scale(10, 10);
          transform: scale(10, 10);
      }
  }

  @-webkit-keyframes el_dMAe4tTFaOv_Animation {
      17.39% {
          opacity: 0;
      }
      39.13% {
          opacity: 1;
      }
      47.83% {
          opacity: 0;
      }
      86.96% {
          opacity: 0;
      }
      0% {
          opacity: 0;
      }
      100% {
          opacity: 0;
      }
  }

  @keyframes el_dMAe4tTFaOv_Animation {
      17.39% {
          opacity: 0;
      }
      39.13% {
          opacity: 1;
      }
      47.83% {
          opacity: 0;
      }
      86.96% {
          opacity: 0;
      }
      0% {
          opacity: 0;
      }
      100% {
          opacity: 0;
      }
  }

  @-webkit-keyframes el_dMAe4tTFaOv_ZVvsytOh4_Animation {
      17.39% {
          -webkit-transform: scale(10, 10);
          transform: scale(10, 10);
      }
      39.13% {
          -webkit-transform: scale(2.5, 2.5);
          transform: scale(2.5, 2.5);
      }
      47.83% {
          -webkit-transform: scale(0, 0);
          transform: scale(0, 0);
      }
      86.96% {
          -webkit-transform: scale(10, 10);
          transform: scale(10, 10);
      }
      0% {
          -webkit-transform: scale(10, 10);
          transform: scale(10, 10);
      }
      100% {
          -webkit-transform: scale(10, 10);
          transform: scale(10, 10);
      }
  }

  @keyframes el_dMAe4tTFaOv_ZVvsytOh4_Animation {
      17.39% {
          -webkit-transform: scale(10, 10);
          transform: scale(10, 10);
      }
      39.13% {
          -webkit-transform: scale(2.5, 2.5);
          transform: scale(2.5, 2.5);
      }
      47.83% {
          -webkit-transform: scale(0, 0);
          transform: scale(0, 0);
      }
      86.96% {
          -webkit-transform: scale(10, 10);
          transform: scale(10, 10);
      }
      0% {
          -webkit-transform: scale(10, 10);
          transform: scale(10, 10);
      }
      100% {
          -webkit-transform: scale(10, 10);
          transform: scale(10, 10);
      }
  }

  @-webkit-keyframes el_MvGwaju0Z43_Animation {
      17.39% {
          opacity: 0;
      }
      39.13% {
          opacity: 1;
      }
      47.83% {
          opacity: 0;
      }
      86.96% {
          opacity: 0;
      }
      0% {
          opacity: 0;
      }
      100% {
          opacity: 0;
      }
  }

  @keyframes el_MvGwaju0Z43_Animation {
      17.39% {
          opacity: 0;
      }
      39.13% {
          opacity: 1;
      }
      47.83% {
          opacity: 0;
      }
      86.96% {
          opacity: 0;
      }
      0% {
          opacity: 0;
      }
      100% {
          opacity: 0;
      }
  }

  @-webkit-keyframes el_MvGwaju0Z43_J_hQO8cpe_Animation {
      17.39% {
          -webkit-transform: scale(10, 10);
          transform: scale(10, 10);
      }
      39.13% {
          -webkit-transform: scale(2.5, 2.5);
          transform: scale(2.5, 2.5);
      }
      47.83% {
          -webkit-transform: scale(0, 0);
          transform: scale(0, 0);
      }
      0% {
          -webkit-transform: scale(10, 10);
          transform: scale(10, 10);
      }
      100% {
          -webkit-transform: scale(0, 0);
          transform: scale(0, 0);
      }
  }

  @keyframes el_MvGwaju0Z43_J_hQO8cpe_Animation {
      17.39% {
          -webkit-transform: scale(10, 10);
          transform: scale(10, 10);
      }
      39.13% {
          -webkit-transform: scale(2.5, 2.5);
          transform: scale(2.5, 2.5);
      }
      47.83% {
          -webkit-transform: scale(0, 0);
          transform: scale(0, 0);
      }
      0% {
          -webkit-transform: scale(10, 10);
          transform: scale(10, 10);
      }
      100% {
          -webkit-transform: scale(0, 0);
          transform: scale(0, 0);
      }
  }

  @-webkit-keyframes el_OJnLp8UmYuv_Animation {
      0% {
          opacity: 0;
      }
      26.09% {
          opacity: 1;
      }
      34.78% {
          opacity: 0;
      }
      100% {
          opacity: 0;
      }
  }

  @keyframes el_OJnLp8UmYuv_Animation {
      0% {
          opacity: 0;
      }
      26.09% {
          opacity: 1;
      }
      34.78% {
          opacity: 0;
      }
      100% {
          opacity: 0;
      }
  }

  @-webkit-keyframes el_OJnLp8UmYuv_vgRB2VtBC_Animation {
      0% {
          -webkit-transform: scale(0, 0);
          transform: scale(0, 0);
      }
      26.09% {
          -webkit-transform: scale(7.5, 7.5);
          transform: scale(7.5, 7.5);
      }
      34.78% {
          -webkit-transform: scale(10, 10);
          transform: scale(10, 10);
      }
      100% {
          -webkit-transform: scale(10, 10);
          transform: scale(10, 10);
      }
  }

  @keyframes el_OJnLp8UmYuv_vgRB2VtBC_Animation {
      0% {
          -webkit-transform: scale(0, 0);
          transform: scale(0, 0);
      }
      26.09% {
          -webkit-transform: scale(7.5, 7.5);
          transform: scale(7.5, 7.5);
      }
      34.78% {
          -webkit-transform: scale(10, 10);
          transform: scale(10, 10);
      }
      100% {
          -webkit-transform: scale(10, 10);
          transform: scale(10, 10);
      }
  }

  @-webkit-keyframes el_Ac0JbsrpWE_KwtaP5WyX_Animation {
      0% {
          -webkit-transform: scale(0, 0);
          transform: scale(0, 0);
      }
      26.09% {
          -webkit-transform: scale(7.5, 7.5);
          transform: scale(7.5, 7.5);
      }
      34.78% {
          -webkit-transform: scale(10, 10);
          transform: scale(10, 10);
      }
      100% {
          -webkit-transform: scale(10, 10);
          transform: scale(10, 10);
      }
  }

  @keyframes el_Ac0JbsrpWE_KwtaP5WyX_Animation {
      0% {
          -webkit-transform: scale(0, 0);
          transform: scale(0, 0);
      }
      26.09% {
          -webkit-transform: scale(7.5, 7.5);
          transform: scale(7.5, 7.5);
      }
      34.78% {
          -webkit-transform: scale(10, 10);
          transform: scale(10, 10);
      }
      100% {
          -webkit-transform: scale(10, 10);
          transform: scale(10, 10);
      }
  }

  @-webkit-keyframes el_Ac0JbsrpWE_Animation {
      0% {
          opacity: 0;
      }
      26.09% {
          opacity: 1;
      }
      34.78% {
          opacity: 0;
      }
      100% {
          opacity: 0;
      }
  }

  @keyframes el_Ac0JbsrpWE_Animation {
      0% {
          opacity: 0;
      }
      26.09% {
          opacity: 1;
      }
      34.78% {
          opacity: 0;
      }
      100% {
          opacity: 0;
      }
  }

  @-webkit-keyframes el_kiVLN9k4O9_Animation {
      0% {
          opacity: 0;
      }
      26.09% {
          opacity: 1;
      }
      34.78% {
          opacity: 0;
      }
      100% {
          opacity: 0;
      }
  }

  @keyframes el_kiVLN9k4O9_Animation {
      0% {
          opacity: 0;
      }
      26.09% {
          opacity: 1;
      }
      34.78% {
          opacity: 0;
      }
      100% {
          opacity: 0;
      }
  }

  @-webkit-keyframes el_kiVLN9k4O9_Fpt8awzaT_Animation {
      0% {
          -webkit-transform: scale(0, 0);
          transform: scale(0, 0);
      }
      34.78% {
          -webkit-transform: scale(10, 10);
          transform: scale(10, 10);
      }
      100% {
          -webkit-transform: scale(10, 10);
          transform: scale(10, 10);
      }
  }

  @keyframes el_kiVLN9k4O9_Fpt8awzaT_Animation {
      0% {
          -webkit-transform: scale(0, 0);
          transform: scale(0, 0);
      }
      34.78% {
          -webkit-transform: scale(10, 10);
          transform: scale(10, 10);
      }
      100% {
          -webkit-transform: scale(10, 10);
          transform: scale(10, 10);
      }
  }

  #el_OFhoQNDUj * {
      -webkit-animation-duration: 3.0s;
      animation-duration: 3.0s;
      -webkit-animation-iteration-count: infinite;
      animation-iteration-count: infinite;
      -webkit-animation-timing-function: cubic-bezier(0, 0, 1, 1);
      animation-timing-function: cubic-bezier(0, 0, 1, 1);
  }

  #el_h_TT78S1QH {
      -webkit-transform: translate(0px, 39.90984px);
      transform: translate(0px, 39.90984px);
  }

  #el_CIZc99qvKq {
      -webkit-transform: matrix(0.06640364, -0.07464353, 0.0740081, 0.06697378, -3.7366803, 39.683244);
      transform: matrix(0.06640364, -0.07464353, 0.0740081, 0.06697378, -3.7366803, 39.683244);
  }

  #el_2OGQMlTnax {
      -webkit-transform: matrix(6.7165008, 7.4856657, -7.4219413, 6.659324, 319.62412, -236.29204);
      transform: matrix(6.7165008, 7.4856657, -7.4219413, 6.659324, 319.62412, -236.29204);
      fill: none;
      stroke: #623cd8;
      stroke-width: 1.59772062;
  }

  #el_cVpE8dcshA {
      stroke: #623cd8;
      -webkit-transform: matrix(-0.04923169, -0.05324777, -0.05279448, 0.0496544, 297.96732, 38.267677);
      transform: matrix(-0.04923169, -0.05324777, -0.05279448, 0.0496544, 297.96732, 38.267677);
  }

  #el__sw5vjt2wL {
      fill: #623cd8;
      stroke: #623cd8;
      stroke-width: 30;
  }

  #el_rawH1Jr5mJ {
      stroke: #623cd8;
      stroke-width: 16;
  }

  #el_J0kTDP2lIf {
      fill: #623cd8;
      stroke-width: 0.69174606;
  }

  #el_a8Ewi6_qVY {
      fill: #623cd8;
      fill-opacity: 1;
      stroke: #623cd8;
      stroke-width: 10;
  }

  #el_ofgxrXA1iS {
      fill: #623cd8;
      fill-opacity: 1;
      stroke: #623cd8;
  }

  #el_JSaINC1cro {
      fill: #623cd8;
      fill-opacity: 1;
      stroke: #623cd8;
      stroke-width: 10;
  }

  #el_kiVLN9k4O9 {
      fill: none;
      fill-opacity: 1;
      stroke: #623cd8;
      stroke-width: 2;
      -webkit-animation-name: el_kiVLN9k4O9_Animation;
      animation-name: el_kiVLN9k4O9_Animation;
      opacity: 0;
  }

  #el_Ac0JbsrpWE {
      fill: none;
      fill-opacity: 1;
      stroke: #623cd8;
      stroke-width: 2;
      -webkit-animation-name: el_Ac0JbsrpWE_Animation;
      animation-name: el_Ac0JbsrpWE_Animation;
      opacity: 0;
  }

  #el_OJnLp8UmYuv {
      fill: none;
      fill-opacity: 1;
      stroke: #623cd8;
      stroke-width: 2;
      -webkit-animation-name: el_OJnLp8UmYuv_Animation;
      animation-name: el_OJnLp8UmYuv_Animation;
      opacity: 0;
  }

  #el_MvGwaju0Z43 {
      fill: none;
      fill-opacity: 1;
      stroke: #623cd8;
      stroke-width: 2;
      -webkit-animation-name: el_MvGwaju0Z43_Animation;
      animation-name: el_MvGwaju0Z43_Animation;
      opacity: 1;
  }

  #el_dMAe4tTFaOv {
      fill: none;
      fill-opacity: 1;
      stroke: #623cd8;
      stroke-width: 2;
      -webkit-animation-name: el_dMAe4tTFaOv_Animation;
      animation-name: el_dMAe4tTFaOv_Animation;
      opacity: 1;
  }

  #el_qz4GTeAoV0v {
      fill: none;
      fill-opacity: 1;
      stroke: #623cd8;
      stroke-width: 2;
      -webkit-animation-name: el_qz4GTeAoV0v_Animation;
      animation-name: el_qz4GTeAoV0v_Animation;
      opacity: 1;
  }

  #el_kiVLN9k4O9_Fpt8awzaT {
      -webkit-transform-origin: 50% 50%;
      transform-origin: 50% 50%;
      transform-box: fill-box;
      -webkit-transform: scale(0, 0);
      transform: scale(0, 0);
      -webkit-animation-name: el_kiVLN9k4O9_Fpt8awzaT_Animation;
      animation-name: el_kiVLN9k4O9_Fpt8awzaT_Animation;
  }

  #el_Ac0JbsrpWE_KwtaP5WyX {
      -webkit-animation-name: el_Ac0JbsrpWE_KwtaP5WyX_Animation;
      animation-name: el_Ac0JbsrpWE_KwtaP5WyX_Animation;
      -webkit-transform-origin: 50% 50%;
      transform-origin: 50% 50%;
      transform-box: fill-box;
      -webkit-transform: scale(0, 0);
      transform: scale(0, 0);
  }

  #el_OJnLp8UmYuv_vgRB2VtBC {
      -webkit-animation-name: el_OJnLp8UmYuv_vgRB2VtBC_Animation;
      animation-name: el_OJnLp8UmYuv_vgRB2VtBC_Animation;
      -webkit-transform-origin: 50% 50%;
      transform-origin: 50% 50%;
      transform-box: fill-box;
      -webkit-transform: scale(0, 0);
      transform: scale(0, 0);
  }

  #el_MvGwaju0Z43_J_hQO8cpe {
      -webkit-animation-name: el_MvGwaju0Z43_J_hQO8cpe_Animation;
      animation-name: el_MvGwaju0Z43_J_hQO8cpe_Animation;
      -webkit-transform-origin: 50% 50%;
      transform-origin: 50% 50%;
      transform-box: fill-box;
      -webkit-transform: scale(10, 10);
      transform: scale(10, 10);
  }

  #el_dMAe4tTFaOv_ZVvsytOh4 {
      -webkit-animation-name: el_dMAe4tTFaOv_ZVvsytOh4_Animation;
      animation-name: el_dMAe4tTFaOv_ZVvsytOh4_Animation;
      -webkit-transform-origin: 50% 50%;
      transform-origin: 50% 50%;
      transform-box: fill-box;
      -webkit-transform: scale(10, 10);
      transform: scale(10, 10);
  }

  #el_qz4GTeAoV0v_pJKESv2QH {
      -webkit-animation-name: el_qz4GTeAoV0v_pJKESv2QH_Animation;
      animation-name: el_qz4GTeAoV0v_pJKESv2QH_Animation;
      -webkit-transform-origin: 50% 50%;
      transform-origin: 50% 50%;
      transform-box: fill-box;
      -webkit-transform: scale(10, 10);
      transform: scale(10, 10);
  }

  #el_MvGwaju0Z43_Xp7pM32xd {
      -webkit-transform-origin: 50% 50%;
      transform-origin: 50% 50%;
      transform-box: fill-box;
      -webkit-transform: translate(NaNpx, -100px);
      transform: translate(NaNpx, -100px);
  }

</style>
  <defs id="defs2"/>
  <sodipodi:namedview id="el_dy37nEXg1W" pagecolor="#ffffff" bordercolor="#666666" borderopacity="1.0" inkscape:pageopacity="0.0" inkscape:pageshadow="2" inkscape:zoom="2.7666667" inkscape:cx="159.4148" inkscape:cy="41.989403" inkscape:document-units="mm" inkscape:current-layer="layer1" showgrid="false" inkscape:window-width="1920" inkscape:window-height="1053" inkscape:window-x="-9" inkscape:window-y="-9" inkscape:window-maximized="1"/>
  <metadata id="metadata5">
    <rdf:rdf>
      <cc:work rdf:about="">
        <dc:format>image/svg+xml</dc:format>
        <dc:type rdf:resource="http://purl.org/dc/dcmitype/StillImage"/>
        <dc:title/>
      </cc:work>
    </rdf:rdf>
  </metadata>
  <g inkscape:label="Layer 1" inkscape:groupmode="layer" id="el_iaxWmsRta6" transform="translate(0,175)">
    <g id="el_h_TT78S1QH">
      <g inkscape:transform-center-y="-1.4963538" inkscape:transform-center-x="6.2686923" id="el_CIZc99qvKq">
        <g id="el_cmkB1oaSpU">
          <path inkscape:connector-curvature="0" id="el_2OGQMlTnax" d="m 16.650391,21.716797 c -2.592269,-0.107579 -5.21223,0.906718 -7.0761722,3.001953 -3.3136745,3.724861 -3.0036991,9.474281 0.6894532,12.816406 2.407113,2.178322 5.822274,2.875479 8.865234,1.853516 l 9.900391,17.3125 -0.701172,0.789062 c -0.640729,0.720236 -0.581292,1.832286 0.132813,2.478516 l 0.542968,0.490234 c 0.714104,0.64623 1.816303,0.58547 2.457032,-0.134765 l 3.097656,-3.482422 c 0.640728,-0.720236 0.581291,-1.832286 -0.132813,-2.478516 l -0.542969,-0.492187 c -0.670587,-0.60685 -1.682387,-0.590691 -2.333984,0.0098 l -0.755859,-1.320312 1.347656,-7.419922 7.167969,-2.152344 1.384765,0.615235 c -0.521564,0.718129 -0.4284,1.734947 0.242188,2.341796 l 0.542969,0.490235 c 0.714104,0.64623 1.816302,0.587423 2.457031,-0.132813 l 3.099609,-3.484375 c 0.640729,-0.720235 0.579339,-1.832285 -0.134765,-2.478515 l -0.542969,-0.490235 c -0.714038,-0.646304 -1.816236,-0.587497 -2.457031,0.132813 l -0.701172,0.789062 -18.134766,-8.05664 c 0.678425,-3.161351 -0.374284,-6.511265 -2.78125,-8.689453 -1.615754,-1.46218 -3.616603,-2.224921 -5.632812,-2.308594 z m -0.0625,1.501953 c 1.68203,0.0698 3.351267,0.70595 4.699218,1.925781 1.931834,1.748217 2.817883,4.401959 2.378907,6.949219 l -0.648438,-0.289062 c 0.340516,-2.278909 -0.467803,-4.586521 -2.189453,-6.144532 -2.799356,-2.533283 -7.121028,-2.296122 -9.632813,0.527344 -2.5117836,2.823466 -2.2778715,7.179607 0.521485,9.712891 1.721724,1.558078 4.085405,2.120755 6.294922,1.533203 l 0.353515,0.61914 C 15.901782,38.76821 13.191599,38.164232 11.259766,36.416016 8.1787344,33.62783 7.9210969,28.832094 10.685547,25.724609 c 1.555003,-1.74796 3.739734,-2.595608 5.902344,-2.505859 z m -0.603516,2.197266 c 1.362713,-0.07445 2.754039,0.373609 3.847656,1.363281 1.241338,1.123351 1.872464,2.74534 1.753907,4.388672 l -0.69336,-0.306641 c 0.02124,-1.305233 -0.49447,-2.612545 -1.53125,-3.550781 -1.897568,-1.717208 -4.826641,-1.558466 -6.529297,0.355469 -1.702655,1.913934 -1.544052,4.868729 0.353516,6.585937 1.036779,0.938236 2.379737,1.314677 3.664062,1.152344 l 0.38086,0.664062 c -1.607274,0.296654 -3.276018,-0.163557 -4.517578,-1.287109 -2.187236,-1.979343 -2.368744,-5.383829 -0.40625,-7.589844 0.981246,-1.103007 2.315021,-1.700937 3.677734,-1.77539 z m 0.119141,2.210937 c 0.800891,-0.04375 1.618995,0.221101 2.261718,0.802735 1.285447,1.163267 1.391646,3.164454 0.238282,4.460937 -1.153365,1.296483 -3.136429,1.405455 -4.421875,0.242187 -1.285447,-1.163267 -1.3936,-3.164454 -0.240235,-4.460937 0.576683,-0.648242 1.361219,-1.001175 2.16211,-1.044922 z m 4.511718,4.753906 21.53711,9.56836 -0.419922,0.472656 L 20.375,32.931641 c 0.09246,-0.179467 0.17256,-0.363437 0.240234,-0.550782 z m -1.779296,2.28125 11.660156,20.390625 -0.419922,0.470704 -11.757813,-20.5625 c 0.177496,-0.0881 0.350666,-0.186738 0.517579,-0.298829 z m 2.509765,1.378907 2.537109,0.09375 1.478516,0.65625 -3.662109,-0.134766 z m 1.232422,2.152343 0.451172,0.01758 0.150391,1.033203 z m 1.966797,0.07227 4.511719,0.167969 0.613281,0.271484 -0.654297,3.605469 -3.484375,1.046875 -0.333984,-0.583984 z m 6.527344,1.0625 0.5625,0.25 -0.375,2.058594 -0.640625,0.193359 z m 1.964843,0.873047 1.212891,0.539062 -1.386719,0.416016 z m 12.146485,0.705078 c 0.06397,-0.0035 0.129547,0.01713 0.179687,0.0625 l 0.541016,0.492188 c 0.100281,0.09075 0.109508,0.252373 0.01953,0.353515 l -3.097656,3.482422 c -0.08998,0.101142 -0.251282,0.110281 -0.351563,0.01953 L 41.93164,44.826175 c -0.100281,-0.09075 -0.109509,-0.254327 -0.01953,-0.355469 l 3.09961,-3.482422 c 0.04499,-0.05057 0.1079,-0.07854 0.171874,-0.08203 z m -8.826172,0.769531 0.84375,0.375 -10.597656,3.181641 -0.306641,-0.535156 z m -5.820313,3.945313 -0.894531,4.925781 -0.460937,-0.804687 0.71289,-3.927735 z m -2.246093,0.673828 -0.259766,1.435547 -0.662109,-1.158203 z m 4.417968,8.634766 c 0.06397,-0.0035 0.127594,0.01713 0.177735,0.0625 l 0.542969,0.490234 c 0.10028,0.09075 0.109508,0.252374 0.01953,0.353516 l -3.09961,3.484374 C 30.259632,59.421454 30.100281,59.430593 30,59.339844 L 29.457031,58.847656 C 29.35675,58.756907 29.347523,58.595283 29.4375,58.494141 l 3.099609,-3.482422 c 0.04502,-0.05061 0.107909,-0.07855 0.171875,-0.08203 z"/>
        </g>
      </g>
      <g id="el_cVpE8dcshA">
        <path inkscape:connector-curvature="0" id="el__sw5vjt2wL" d="M 458.619,323.507 142.171,7.059 c -4.709,-4.71 -11.22,-7.286 -17.907,-7.043 -6.63,0.232 -12.917,3.226 -17.249,8.213 -41.13,47.359 -62.635,108.08 -60.553,170.978 2.092,63.203 27.883,122.648 72.622,167.387 15.751,15.751 33.332,29.142 52.251,39.989 -11.196,5 -19.022,16.233 -19.022,29.267 0,8.314 3.185,15.898 8.397,21.599 -0.247,0.77 -0.383,1.59 -0.383,2.442 v 24.055 h -40.11 c -13.233,0 -24,10.767 -24,24 v 16.055 c 0,4.418 3.582,8 8,8 h 160.275 c 4.418,0 8,-3.582 8,-8 v -16.055 c 0,-13.233 -10.767,-24 -24,-24 h -40.11 V 439.89 c 0,-0.852 -0.136,-1.672 -0.383,-2.443 5.212,-5.7 8.397,-13.284 8.397,-21.598 0,-3.351 -0.519,-6.583 -1.478,-9.621 22.849,7.738 46.913,12.172 71.553,12.988 2.787,0.092 5.567,0.138 8.345,0.138 59.906,0 117.373,-21.384 162.633,-60.693 4.987,-4.331 7.98,-10.618 8.213,-17.248 0.235,-6.67 -2.332,-13.197 -7.043,-17.906 z m -274.264,76.301 c 8.845,0 16.042,7.196 16.042,16.042 0,8.846 -7.196,16.041 -16.042,16.041 -8.846,0 -16.042,-7.196 -16.042,-16.041 0,-8.845 7.196,-16.042 16.042,-16.042 z m 72.137,88.137 V 496 H 112.217 v -8.055 c 0,-4.411 3.589,-8 8,-8 h 128.275 c 4.411,0 8,3.589 8,8 z m -80.165,-24 v -17.074 c 2.566,0.665 5.256,1.019 8.027,1.019 2.771,0 5.461,-0.354 8.028,-1.019 v 17.074 z M 446.958,346.582 c -42.34,36.772 -96.094,56.775 -152.147,56.772 -2.595,0 -5.206,-0.043 -7.81,-0.129 C 227.872,401.267 172.255,377.138 130.398,335.281 88.541,293.424 64.411,237.807 62.454,178.678 60.506,119.828 80.622,63.021 119.097,18.721 c 1.453,-1.672 3.488,-2.636 5.731,-2.715 0.1,-0.003 0.199,-0.005 0.298,-0.005 2.17,0 4.197,0.835 5.733,2.372 L 447.306,334.82 c 1.606,1.606 2.447,3.749 2.367,6.031 -0.08,2.243 -1.044,4.279 -2.715,5.731 z"/>
        <path inkscape:connector-curvature="0" id="el_rawH1Jr5mJ" d="m 320.325,152.381 c 2.047,0 4.095,-0.781 5.657,-2.343 l 74.271,-74.271 c 4.719,2.74 10.193,4.317 16.031,4.317 17.668,0 32.042,-14.374 32.042,-32.041 0,-17.668 -14.374,-32.042 -32.042,-32.042 -17.667,0 -32.041,14.374 -32.041,32.042 0,6.037 1.68,11.688 4.594,16.513 l -74.168,74.168 c -3.125,3.124 -3.125,8.189 0,11.313 1.561,1.562 3.609,2.344 5.656,2.344 z m 95.959,-120.38 c 8.845,0 16.042,7.196 16.042,16.042 0,8.846 -7.196,16.041 -16.042,16.041 -8.846,0 -16.041,-7.196 -16.041,-16.041 0,-8.845 7.196,-16.042 16.041,-16.042 z"/>
      </g>
      <path id="el_J0kTDP2lIf" d="m 300.85505,124.67009 c 0.0437,-0.21649 0.0906,-0.42568 0.13081,-0.64896 l -0.32594,-0.0724 C 293.22922,96.875627 279.89097,72.070231 261.36835,51.488864 231.6206,18.435872 192.06849,0.23228934 149.99902,0.23228934 107.92954,0.23228934 68.377435,18.435872 38.629685,51.489586 8.8819344,84.542577 -7.5,128.48926 -7.5,175.23301 c 0,46.74374 16.3825907,90.69043 46.129685,123.74341 29.747094,33.05299 69.299205,51.25585 111.369335,51.25585 42.07013,0 81.62158,-18.20286 111.36998,-51.25585 29.74841,-33.05298 46.131,-76.99967 46.131,-123.74341 -6.5e-4,-17.38032 -2.26996,-34.37279 -6.64452,-50.56311 z M 219.03462,34.271317 c 11.11292,6.741841 21.48099,15.15568 30.84369,25.135023 -0.87347,2.701527 -2.3579,5.672891 -4.66265,5.672891 -0.035,0 -0.0722,-7.32e-4 -0.10893,-0.002 -1.97859,-0.07963 -4.27218,-0.915826 -6.7003,-1.800332 -3.67893,-1.340183 -7.84939,-2.861221 -12.58751,-2.436132 -4.63705,0.413547 -8.61195,2.588535 -12.11829,4.506964 -3.28715,1.798136 -6.12542,3.353441 -8.15913,2.788313 -1.93397,-0.535173 -3.95718,-3.239678 -6.0329,-6.202969 -0.92268,-1.316897 -1.49362,-2.261143 -1.70362,-2.81531 0.24762,-0.458685 0.75075,-1.182725 1.0185,-1.56768 2.61318,-3.758123 7.02711,-8.568429 11.29601,-13.220465 3.07977,-3.357091 6.21926,-6.786358 8.91513,-10.058117 z M 172.88066,16.818811 c -0.76519,5.43006 -2.87897,12.587534 -4.79259,15.217617 -2.11509,2.905737 -5.85373,4.247374 -8.33435,2.992464 -2.50228,-1.267276 -4.4835,-5.227353 -5.29856,-10.59324 -0.53418,-3.517508 -1.58746,-6.695931 -2.69915,-9.59511 7.13933,0.09327 14.19466,0.75909 21.12465,1.978269 z M 47.910572,61.801595 C 65.034067,42.775533 85.702618,29.120502 108.25985,21.591179 c 2.72409,9.951624 6.04143,19.27472 9.27673,28.085158 2.47669,6.746996 5.28477,14.393 4.65084,21.312738 -0.24281,2.649789 -0.84853,6.03819 -2.35856,7.135582 -1.31315,0.955228 -3.9493,1.199483 -6.73902,1.45833 -4.59899,0.426653 -10.32213,0.957414 -15.53537,5.024666 -1.113654,0.86844 -2.147902,1.766786 -3.147368,2.633773 -2.147902,1.864445 -4.177023,3.624643 -6.068988,4.213839 -1.87031,0.58333 -4.280055,0.27764 -7.071737,-0.07572 -1.603215,-0.202887 -3.261556,-0.412093 -5.016365,-0.476165 -5.570238,-0.227638 -18.267336,2.746003 -23.795575,10.76828 -2.731963,3.96445 -3.518805,8.75651 -2.215495,13.49389 0.965341,3.5109 3.033837,5.96018 4.931052,7.89395 8.861325,9.02701 21.022925,15.42034 33.364995,17.54219 1.765309,0.30336 3.47418,0.53523 5.12727,0.76054 9.050321,1.23078 13.552851,2.12549 16.975841,8.97892 0.85247,1.70694 1.5389,3.72748 2.26603,5.86685 0.83671,2.46384 1.7023,5.01151 2.96296,7.5796 3.74324,7.62928 10.05373,12.09833 16.46265,11.70167 4.78405,-0.30627 8.3173,-3.08072 11.15623,-5.30905 1.30987,-1.02813 2.5469,-1.99938 3.60543,-2.48937 2.84484,-1.31981 7.18789,-0.14804 11.61232,3.12886 3.03449,2.24799 6.96017,5.96674 8.42951,10.91554 1.10578,3.72311 0.34038,8.03319 -1.80468,10.04788 l -19.28715,18.30274 c -6.21074,5.89456 -12.85591,13.05204 -13.07969,23.43167 -0.0709,3.28269 0.53878,6.43489 1.07625,9.21665 0.37668,1.94614 1.00603,5.20402 0.66806,6.05499 -0.3535,0.34899 -2.00747,0.79986 -2.99512,1.06891 -1.74037,0.47325 -3.7124,1.00993 -5.71658,2.13499 -9.71642,5.45126 -10.62401,18.36619 -11.22514,26.91346 -0.43574,6.20006 -2.50555,11.41794 -4.61539,11.63234 -1.71609,0.183 -4.13962,-3.11351 -4.98159,-6.76737 -0.52237,-2.26697 -0.76781,-4.79426 -1.02768,-7.4703 -0.37406,-3.85509 -0.79866,-8.22494 -2.19187,-12.51608 -1.7955,-5.52923 -4.92121,-10.08724 -7.678767,-14.10858 -2.708338,-3.95061 -5.267051,-7.68173 -6.093268,-11.56309 -0.618843,-2.90719 -0.36925,-6.40057 -0.104125,-10.10038 0.337312,-4.71038 0.719248,-10.04934 -0.625405,-15.48376 -1.910998,-7.72479 -6.646488,-13.24454 -10.824823,-18.11606 -2.743776,-3.19813 -5.335302,-6.21904 -6.874861,-9.48279 -1.855871,-3.9346 -1.625528,-8.05874 -1.358435,-12.83402 0.252875,-4.52593 0.539437,-9.65631 -1.082154,-14.93473 -1.619621,-5.27114 -5.448176,-8.31609 -8.283826,-10.57214 -8.313358,-6.61277 -16.100404,-14.1436 -23.143921,-22.38387 -3.765554,-4.40488 -7.446453,-9.21588 -8.872481,-14.54095 -0.372749,-1.39203 -0.630655,-2.44346 -0.833436,-3.26594 C 25.276119,102.73255 24.745214,101.423 22.851936,99.094776 29.442641,85.551287 37.83803,72.993659 47.91079,61.801695 Z M 149.99858,335.64923 c -38.5638,0 -74.819565,-16.68618 -102.088008,-46.98512 C 20.642128,258.3659 5.624535,218.0818 5.624535,175.23324 c 0,-20.26786 3.3645867,-39.96036 9.791886,-58.2959 2.479963,6.80382 6.691111,12.32794 10.950164,17.31033 7.615109,8.90819 16.033467,17.05003 25.060167,24.22938 1.275091,1.01499 3.203149,2.54842 3.463024,3.39496 0.781592,2.5448 0.606373,5.68531 0.403811,9.32018 -0.322874,5.77643 -0.723842,12.96381 2.833026,20.50555 2.393995,5.07569 5.752019,8.98984 8.999137,12.77567 3.560149,4.14967 6.634674,7.73427 7.669578,11.91965 0.733686,2.96549 0.473155,6.60842 0.19775,10.4635 -0.317625,4.44207 -0.677905,9.4762 0.415624,14.61245 1.468028,6.89785 5.164676,12.28857 8.425576,17.0442 2.397276,3.49629 4.661336,6.79796 5.772365,10.21993 0.859029,2.64543 1.164841,5.79614 1.488372,9.13133 0.297937,3.06903 0.606374,6.24234 1.362372,9.5229 2.084246,9.04744 8.690703,17.74415 17.510023,17.74343 0.45347,0 0.91416,-0.0243 1.37944,-0.0699 9.1632,-0.92896 15.48812,-10.51675 16.50728,-25.01983 0.39374,-5.60431 0.93318,-13.27949 4.05561,-15.03022 0.66675,-0.3747 1.76269,-0.67302 2.92293,-0.98803 2.67947,-0.72914 6.3479,-1.72738 9.26033,-5.04141 5.33596,-6.07179 3.85743,-13.72289 2.77724,-19.30827 -0.42218,-2.1846 -0.82096,-4.24737 -0.7875,-5.80485 0.0945,-4.37281 4.42837,-8.84478 8.48267,-12.69258 l 19.26287,-18.28159 c 6.27046,-5.89165 8.58898,-16.23118 5.76908,-25.72853 -2.09081,-7.04153 -6.79808,-13.43195 -13.61453,-18.48137 -8.32517,-6.16433 -16.82687,-7.74664 -23.9393,-4.45668 -2.3999,1.11051 -4.38308,2.66805 -6.1333,4.04177 -1.62421,1.27529 -3.30355,2.59436 -4.33714,2.65998 -1.03097,0.0738 -2.87568,-1.4576 -4.18359,-4.12268 -0.82556,-1.6829 -1.49625,-3.65822 -2.20696,-5.74948 -0.861,-2.53456 -1.75153,-5.15517 -3.06862,-7.79328 -6.81974,-13.65429 -17.4654,-15.10097 -26.857633,-16.37849 -1.551371,-0.21066 -3.155243,-0.4286 -4.715146,-0.69706 -9.844388,-1.69091 -19.503711,-6.74986 -26.500634,-13.87744 -0.882655,-0.89906 -1.174685,-1.30887 -1.269841,-1.4853 -0.0087,-0.0388 -0.01312,-0.0724 -0.0175,-0.0947 0.866904,-2.24072 8.728106,-5.39293 13.06591,-5.2529 1.226529,0.0437 2.555432,0.21357 3.962429,0.39171 3.634305,0.46014 7.752923,0.98216 12.099258,-0.3718 4.387679,-1.36645 7.691234,-4.2335 10.606287,-6.762231 0.91022,-0.790449 1.77056,-1.536381 2.61122,-2.192608 2.30474,-1.798096 5.44686,-2.089044 9.0851,-2.426664 7.19708,-0.667158 19.24318,-1.784267 21.06362,-21.649607 0.96534,-10.53713 -2.65059,-20.38522 -5.55581,-28.298094 -3.03449,-8.265075 -6.14576,-16.980031 -8.6861,-26.127377 5.46195,-1.230832 11.01119,-2.108739 16.62671,-2.635187 0.31413,0.799865 0.63066,1.590304 0.94566,2.366874 1.28099,3.160161 2.49112,6.144622 2.93933,9.090454 1.58681,10.448157 6.13199,18.06209 12.79685,21.436701 2.38612,1.208208 4.96059,1.787165 7.55736,1.787165 6.07752,0 12.27382,-3.174051 16.42656,-8.881931 3.34162,-4.594472 6.25602,-13.523095 7.43071,-21.46078 7.16295,2.016909 14.152,4.646982 20.92251,7.85531 -1.81518,2.063501 -3.7813,4.207281 -5.7192,6.318207 -4.58587,4.997669 -9.32726,10.16451 -12.4917,14.716691 -1.25277,1.801737 -3.1454,4.523711 -3.68089,8.289877 -0.90891,6.395486 2.67355,11.509115 4.39489,13.966396 2.67684,3.821513 6.72261,9.596524 13.21423,11.396074 1.40174,0.387824 2.76346,0.557065 4.08317,0.556343 4.98553,0 9.3732,-2.400399 13.04951,-4.412163 2.69062,-1.472159 5.23227,-2.862675 7.37033,-3.053729 2.10721,-0.191244 4.58258,0.713852 7.44842,1.75728 3.03843,1.10687 6.48242,2.361038 10.3136,2.515628 6.1333,0.251425 11.28748,-2.998341 14.8286,-9.032158 12.34338,15.895064 21.61748,34.067239 27.49485,53.613249 -0.966,0.77582 -2.93212,0.8779 -7.54686,0.94206 -2.00484,0.0291 -4.27678,0.0593 -6.69899,0.266 -6.74689,0.57531 -11.96472,-1.57137 -18.00549,-4.05852 -4.05562,-1.66981 -8.24905,-3.39645 -13.26279,-4.50331 -12.63147,-2.79347 -25.68426,5.05015 -33.25343,19.97614 -1.37615,2.71396 -13.19388,26.89812 -4.45002,40.27973 3.2668,4.99841 7.89139,8.07985 11.60772,10.55612 5.27099,3.51018 10.72179,7.13995 16.75863,9.8459 1.29215,0.57964 2.59743,1.11488 3.85939,1.63258 4.59243,1.88342 8.92958,3.66259 11.05582,6.89571 1.77909,2.70591 2.36841,6.98827 1.80272,13.09214 -0.42962,4.63237 -1.98318,9.34056 -3.6284,14.32441 -3.68877,11.17809 -8.27989,25.08978 2.48259,38.75433 3.06927,3.89663 6.75411,6.86431 10.83007,8.81412 -2.05996,2.60019 -4.19408,5.14422 -6.41811,7.61535 -27.26976,30.29894 -63.52552,46.98512 -102.08932,46.98512 z m 117.26638,-66.79575 c -3.7439,-0.7452 -7.06058,-2.85613 -9.71248,-6.22269 -5.38649,-6.83882 -3.71699,-12.97694 -0.035,-24.1295 1.85062,-5.6058 3.76359,-11.40412 4.36143,-17.8492 0.91415,-9.85538 -0.47906,-17.44087 -4.26037,-23.19102 -4.46249,-6.78708 -11.18116,-9.54259 -17.1084,-11.97362 -1.22587,-0.50237 -2.38349,-0.9778 -3.49452,-1.47507 -5.08265,-2.27868 -9.86145,-5.46074 -14.92047,-8.82948 -2.97084,-1.97967 -6.0434,-4.0257 -7.73586,-6.61569 -2.08031,-3.18351 0.47775,-15.11628 5.26377,-24.55314 3.59559,-7.08817 10.79791,-14.69847 19.2609,-12.83182 3.98999,0.88086 7.52126,2.33477 11.26057,3.87406 6.86108,2.82478 13.95841,5.75234 23.5731,4.92477 2.00156,-0.17036 3.96178,-0.19851 5.85702,-0.22521 3.40921,-0.0485 7.36377,-0.1048 10.97707,-1.41242 2.51934,11.95174 3.82396,24.30818 3.82396,36.88989 0,34.07452 -9.50641,66.52083 -27.10897,93.62024 z" inkscape:connector-curvature="0"/>
      <path inkscape:connector-curvature="0" id="el_a8Ewi6_qVY" d="m 108.00994,288.86697 c -1.87122,-1.95291 -2.7823,-4.59984 -3.37193,-9.79638 -1.72761,-15.22581 -2.81056,-18.38578 -9.963254,-29.07204 -6.558426,-9.79841 -6.887725,-10.84642 -6.466507,-20.58007 0.373258,-8.62541 0.267054,-12.38354 -0.450058,-15.92595 -1.197585,-5.91586 -4.07374,-10.94165 -10.936623,-19.11064 -4.663453,-5.55098 -6.23983,-7.8112 -7.365267,-10.56036 -0.758003,-1.85162 -0.802699,-2.50279 -0.841283,-12.25672 -0.03684,-9.31298 -0.114889,-10.57561 -0.813611,-13.16162 -1.385227,-5.12683 -2.916857,-7.07087 -10.711905,-13.59622 -6.403254,-5.36026 -12.225499,-10.89864 -17.277281,-16.43493 -7.647841,-8.38132 -10.850684,-13.0833 -12.371856,-18.16265 -0.491167,-1.64006 -1.29607,-4.32379 -1.788672,-5.96385 -0.492603,-1.64006 -1.295095,-3.46988 -1.783318,-4.06627 l -0.887676,-1.084335 2.296664,-4.379866 C 40.604064,65.486206 64.804356,41.52941 92.416624,28.251343 96.856913,26.116117 107.08045,21.92626 107.85026,21.92626 c 0.18289,0 0.60019,0.935241 0.92732,2.078313 1.57073,5.488372 3.8373,12.348912 7.10826,21.515579 4.22362,11.83643 4.87205,13.874648 5.56314,17.486608 1.06448,5.563583 0.40428,12.600944 -1.35816,14.476966 -1.01713,1.082697 -2.30041,1.443731 -6.7965,1.912106 -8.81507,0.918304 -12.8897,2.500443 -18.253011,7.087461 -4.143715,3.543947 -6.046897,4.754924 -7.908387,5.032026 -0.819061,0.121923 -3.766312,-0.027 -6.549444,-0.330983 -5.592687,-0.610814 -8.410439,-0.423058 -13.145216,0.87591 -14.648798,4.018839 -21.436828,14.981514 -16.080166,25.969474 3.043011,6.24204 14.37664,14.97026 24.888033,19.16669 5.038554,2.01153 9.479569,3.13386 16.626506,4.20185 9.252285,1.3826 11.228925,1.98929 14.096385,4.32664 2.08294,1.69786 3.49636,4.29544 5.9006,10.84408 1.16692,3.17843 2.49467,6.51089 2.95056,7.40547 2.45305,4.81348 5.71029,8.24114 9.69606,10.20332 2.22817,1.09693 2.66277,1.18223 6.02349,1.18223 3.31139,0 3.82357,-0.0966 5.97146,-1.12674 1.29217,-0.61971 3.89458,-2.28832 5.78313,-3.70803 1.88856,-1.41971 4.0781,-2.75804 4.86567,-2.97407 5.25751,-1.44209 14.7063,5.07612 18.14773,12.51916 0.82095,1.77551 0.99964,2.67024 1.01007,5.05735 0.0198,4.53481 -0.0846,4.66889 -13.66642,17.55348 -6.52953,6.19432 -12.92422,12.58411 -14.21043,14.19954 -2.99742,3.76463 -5.31938,8.51273 -6.11594,12.50626 -0.71618,3.59053 -0.55532,7.41457 0.56931,13.53428 1.13471,6.17453 1.36392,5.64923 -3.07385,7.04463 -10.67679,3.3572 -14.59225,9.96245 -16.0887,27.14112 -0.21647,2.48494 -0.62644,5.53609 -0.91105,6.78034 -0.84779,3.70628 -2.59849,6.59316 -3.99832,6.59316 -0.14654,0 -0.96215,-0.72608 -1.81245,-1.61351 z"/>
      <path inkscape:connector-curvature="0" id="el_ofgxrXA1iS" d="m 159.33704,34.494991 c -2.36742,-1.827155 -3.4662,-4.20901 -4.82397,-10.457007 -0.5764,-2.652412 -1.37585,-5.757808 -1.77656,-6.90088 l -0.72855,-2.078314 2.23956,0.0037 c 4.35236,0.0072 17.74283,1.463387 18.26574,1.986299 0.29486,0.29486 -1.03717,6.220171 -2.11541,9.410021 -1.73407,5.130065 -3.18738,7.117177 -6.09345,8.33158 -1.81221,0.757296 -3.75291,0.641875 -4.96736,-0.295428 z"/>
      <path inkscape:connector-curvature="0" id="el_JSaINC1cro" d="m 204.7401,67.545841 c -1.3305,-0.708846 -6.01206,-6.526854 -6.36943,-7.915621 -0.34564,-1.343204 1.74173,-4.014073 11.95665,-15.298979 2.79149,-3.083887 5.91385,-6.570473 6.93859,-7.747969 l 1.86316,-2.140901 5.18503,3.465304 c 7.03242,4.699958 13.90632,10.290745 20.16499,16.40089 l 5.22091,5.097016 -0.63594,1.665183 c -0.34977,0.915851 -1.22133,2.179166 -1.93681,2.807368 -1.65722,1.455049 -2.40519,1.370633 -9.76915,-1.10254 -9.70691,-3.260045 -12.90236,-2.981449 -22.82281,1.98981 -6.85823,3.436742 -7.97062,3.752502 -9.79519,2.780439 z"/>
    </g>
    <g id="el_kiVLN9k4O9_Fpt8awzaT" data-animator-group="true" data-animator-type="2"><ellipse id="el_kiVLN9k4O9" cx="16.138802" cy="70.768799" rx="11.612905" ry="11.612904"/></g>
    <g id="el_Ac0JbsrpWE_KwtaP5WyX" data-animator-group="true" data-animator-type="2"><circle id="el_Ac0JbsrpWE" cx="16.520401" cy="70.270813" r="17.419355"/></g>
    <g id="el_OJnLp8UmYuv_vgRB2VtBC" data-animator-group="true" data-animator-type="2"><ellipse id="el_OJnLp8UmYuv" cx="16.07711" cy="69.975922" rx="23.225805" ry="23.225807"/></g>
    <g id="el_MvGwaju0Z43_J_hQO8cpe" data-animator-group="true" data-animator-type="2"><ellipse id="el_MvGwaju0Z43" cx="274.49707" cy="58.438271" rx="11.612905" ry="11.612904"/></g>
    <g id="el_dMAe4tTFaOv_ZVvsytOh4" data-animator-group="true" data-animator-type="2"><circle id="el_dMAe4tTFaOv" cx="274.87869" cy="57.940285" r="17.419353"/></g>
    <g id="el_qz4GTeAoV0v_pJKESv2QH" data-animator-group="true" data-animator-type="2"><ellipse id="el_qz4GTeAoV0v" cx="274.43539" cy="57.645393" rx="23.225805" ry="23.225807"/></g>
  </g>
<script>(function(){var a=document.querySelector('#el_OFhoQNDUj'),b=a.querySelectorAll('style'),c=function(d){b.forEach(function(f){var g=f.textContent;g&amp;&amp;(f.textContent=g.replace(/transform-box:[^;\r\n]*/gi,'transform-box: '+d))})};c('initial'),window.requestAnimationFrame(function(){return c('fill-box')})})();</script></svg>
