<svg xmlns="http://www.w3.org/2000/svg" xmlns:xlink="http://www.w3.org/1999/xlink" width="250" height="250" version="1.1" id="svg8"><style>@keyframes glow{6%{opacity:1}12%{opacity:.4}18%{opacity:.9}24%{opacity:.5}30%{opacity:1&apos; }
      100% { opacity: 1&apos; }
    }

    @keyframes stars {
      0% { transform: rotate(0deg) }
      100% { transform: rotate(360deg) }
    }

    .stars {
      animation: stars 10s linear infinite
      transform-origin: left;
    }}}use:nth-child(n+1){animation:glow 4.7s infinite forwards;animation-delay:1s}use:nth-child(2n+1){animation:glow 1.3s infinite forwards;animation-delay:4s}use:nth-child(3n+1){animation:glow 2.1s infinite forwards;animation-delay:7s}use:nth-child(4n+1){animation:glow 7.3s infinite forwards;animation-delay:3s}use:nth-child(5n+1){animation:glow 4.4s infinite forwards;animation-delay:2s}use:nth-child(6n+1){animation:glow 3.8s infinite forwards;animation-delay:9s}use:nth-child(7n+1){animation:glow 2.2s infinite forwards;animation-delay:5s}use:nth-child(8n+1){animation:glow 2.8s infinite forwards;animation-delay:6s}use:nth-child(9n+1){animation:glow 2.1s infinite forwards;animation-delay:8s}use:nth-child(10n+1){animation:glow 3.2s infinite forwards;animation-delay:2s}use:nth-child(11n+1){animation:glow 4.3s infinite forwards;animation-delay:6s}use:nth-child(12n+1){animation:glow 1s infinite forwards;animation-delay:3.2s}use:nth-child(13n+1){animation:glow 3.2s infinite forwards;animation-delay:1.7s}use:nth-child(14n+1){animation:glow 2.4s infinite forwards;animation-delay:2.6s}use:nth-child(15n+1){animation:glow 6s infinite forwards;animation-delay:.2s}</style><g id="layer1"><circle style="fill:#623cd8;fill-opacity:1;stroke:#f2f2f2;stroke-width:.15517098" id="path815" cx="9.837" cy="23.898" r=".922"/><use id="use1487" xlink:href="#path815" transform="matrix(1.21642 0 0 1.21642 117.28 -20.833)" x="0" y="0" width="100%" height="100%"/><use id="use1489" xlink:href="#path815" transform="translate(4.377 48.465) scale(1.05303)" x="0" y="0" width="100%" height="100%"/><use id="use1491" xlink:href="#path815" transform="matrix(1.23063 0 0 1.23063 82.5 -10.49)" x="0" y="0" width="100%" height="100%"/><use id="use1493" xlink:href="#path815" transform="matrix(.83167 0 0 .83167 5.22 -8.704)" x="0" y="0" width="100%" height="100%"/><use id="use1495" xlink:href="#path815" transform="matrix(.8003 0 0 .8003 77.12 86.828)" x="0" y="0" width="100%" height="100%"/><use id="use1497" xlink:href="#path815" transform="translate(7.48 19.977) scale(1.25885)" x="0" y="0" width="100%" height="100%"/><use id="use1499" xlink:href="#path815" transform="matrix(.88584 0 0 .88584 62.929 35.75)" x="0" y="0" width="100%" height="100%"/><use id="use1501" xlink:href="#path815" transform="matrix(.87571 0 0 .87571 55.103 30.665)" x="0" y="0" width="100%" height="100%"/><use id="use1503" xlink:href="#path815" transform="matrix(1.33302 0 0 1.33302 99.357 -15.84)" x="0" y="0" width="100%" height="100%"/><use id="use1505" xlink:href="#path815" transform="matrix(.9881 0 0 .9881 20.55 22.098)" x="0" y="0" width="100%" height="100%"/><use id="use1507" xlink:href="#path815" transform="matrix(1.2727 0 0 1.2727 53.058 -12.461)" x="0" y="0" width="100%" height="100%"/><use id="use1509" xlink:href="#path815" transform="matrix(.81109 0 0 .81109 81.443 33.35)" x="0" y="0" width="100%" height="100%"/><use id="use1511" xlink:href="#path815" transform="matrix(.82031 0 0 .82031 90.484 90.407)" x="0" y="0" width="100%" height="100%"/><use id="use1513" xlink:href="#path815" transform="matrix(1.06418 0 0 1.06418 61.004 71.374)" x="0" y="0" width="100%" height="100%"/><use id="use1515" xlink:href="#path815" transform="matrix(1.20906 0 0 1.20906 144.033 22.243)" x="0" y="0" width="100%" height="100%"/><use id="use1517" xlink:href="#path815" transform="translate(105.109 37.063) scale(.86842)" x="0" y="0" width="100%" height="100%"/><use id="use1519" xlink:href="#path815" transform="matrix(.96349 0 0 .96349 72.357 40.859)" x="0" y="0" width="100%" height="100%"/><use id="use1521" xlink:href="#path815" transform="matrix(1.06608 0 0 1.06608 105.112 50.865)" x="0" y="0" width="100%" height="100%"/><use id="use1523" xlink:href="#path815" transform="matrix(.67206 0 0 .67206 205.65 145.365)" x="0" y="0" width="100%" height="100%"/><use id="use1525" xlink:href="#path815" transform="matrix(1.06171 0 0 1.06171 196.514 42.377)" x="0" y="0" width="100%" height="100%"/><use id="use1527" xlink:href="#path815" transform="matrix(1.06384 0 0 1.06384 146.586 75.543)" x="0" y="0" width="100%" height="100%"/><use id="use1529" xlink:href="#path815" transform="translate(84.553 63.874) scale(1.3354)" x="0" y="0" width="100%" height="100%"/><use id="use1531" xlink:href="#path815" transform="matrix(.67593 0 0 .67593 210.009 28.03)" x="0" y="0" width="100%" height="100%"/><use id="use1533" xlink:href="#path815" transform="matrix(.92543 0 0 .92543 203.782 36.333)" x="0" y="0" width="100%" height="100%"/><use id="use1535" xlink:href="#path815" transform="matrix(.85644 0 0 .85644 127.855 104.203)" x="0" y="0" width="100%" height="100%"/><use id="use1537" xlink:href="#path815" transform="matrix(.79544 0 0 .79544 197.172 100.268)" x="0" y="0" width="100%" height="100%"/><use id="use1539" xlink:href="#path815" transform="matrix(1.08793 0 0 1.08793 185.472 26.456)" x="0" y="0" width="100%" height="100%"/><use id="use1541" xlink:href="#path815" transform="matrix(.90584 0 0 .90584 199.401 29.636)" x="0" y="0" width="100%" height="100%"/><use id="use1543" xlink:href="#path815" transform="translate(139.046 119.334) scale(.74921)" x="0" y="0" width="100%" height="100%"/><use id="use1545" xlink:href="#path815" transform="translate(163.376 144.004) scale(1.33333)" x="0" y="0" width="100%" height="100%"/><use id="use1547" xlink:href="#path815" transform="matrix(1.11637 0 0 1.11637 134.631 109.308)" x="0" y="0" width="100%" height="100%"/><use id="use1549" xlink:href="#path815" transform="matrix(1.2258 0 0 1.2258 209.927 62.071)" x="0" y="0" width="100%" height="100%"/><use id="use1551" xlink:href="#path815" transform="matrix(1.26074 0 0 1.26074 184.459 15.775)" x="0" y="0" width="100%" height="100%"/><use id="use1553" xlink:href="#path815" transform="matrix(1.1517 0 0 1.1517 188.404 149.694)" x="0" y="0" width="100%" height="100%"/><use id="use1555" xlink:href="#path815" transform="matrix(.8774 0 0 .8774 114.176 128.065)" x="0" y="0" width="100%" height="100%"/><use id="use1557" xlink:href="#path815" transform="translate(190.264 131.536) scale(.84041)" x="0" y="0" width="100%" height="100%"/><use id="use1559" xlink:href="#path815" transform="matrix(1.2341 0 0 1.2341 118.755 74.134)" x="0" y="0" width="100%" height="100%"/><use id="use1561" xlink:href="#path815" transform="matrix(.7442 0 0 .7442 169.907 203.808)" x="0" y="0" width="100%" height="100%"/><use id="use1563" xlink:href="#path815" transform="translate(138.738 160.151) scale(.89812)" x="0" y="0" width="100%" height="100%"/><use id="use1565" xlink:href="#path815" transform="matrix(.81217 0 0 .81217 81.796 114.491)" x="0" y="0" width="100%" height="100%"/><use id="use1567" xlink:href="#path815" transform="matrix(.8819 0 0 .8819 143.759 177.139)" x="0" y="0" width="100%" height="100%"/><use id="use1569" xlink:href="#path815" transform="translate(173.032 117.124) scale(1.05325)" x="0" y="0" width="100%" height="100%"/><use id="use1571" xlink:href="#path815" transform="translate(98.702 145.973) scale(1.22507)" x="0" y="0" width="100%" height="100%"/><use id="use1573" xlink:href="#path815" transform="translate(106.855 130.532) scale(1.14724)" x="0" y="0" width="100%" height="100%"/><use id="use1575" xlink:href="#path815" transform="matrix(.80483 0 0 .80483 40.18 183.303)" x="0" y="0" width="100%" height="100%"/><use id="use1577" xlink:href="#path815" transform="matrix(1.12979 0 0 1.12979 112.497 98.174)" x="0" y="0" width="100%" height="100%"/><use id="use1579" xlink:href="#path815" transform="translate(58.335 102.314) scale(.91284)" x="0" y="0" width="100%" height="100%"/><use id="use1581" xlink:href="#path815" transform="matrix(.78028 0 0 .78028 63.441 207.845)" x="0" y="0" width="100%" height="100%"/><use id="use1583" xlink:href="#path815" transform="matrix(.94792 0 0 .94792 104.515 205.052)" x="0" y="0" width="100%" height="100%"/><use id="use1585" xlink:href="#path815" transform="matrix(1.1555 0 0 1.1555 13.432 185.676)" x="0" y="0" width="100%" height="100%"/><use id="use1587" xlink:href="#path815" transform="translate(2.925 183.78) scale(.74421)" x="0" y="0" width="100%" height="100%"/><use id="use1589" xlink:href="#path815" transform="matrix(.64192 0 0 .64192 140.669 194.892)" x="0" y="0" width="100%" height="100%"/><use id="use1591" xlink:href="#path815" transform="translate(102.044 112.651) scale(1.08384)" x="0" y="0" width="100%" height="100%"/><use id="use1593" xlink:href="#path815" transform="matrix(1.26513 0 0 1.26513 91.223 212.72)" x="0" y="0" width="100%" height="100%"/><use id="use1595" xlink:href="#path815" transform="matrix(.8879 0 0 .8879 116.171 203.997)" x="0" y="0" width="100%" height="100%"/><use id="use1597" xlink:href="#path815" transform="matrix(.97449 0 0 .97449 84.336 130.148)" x="0" y="0" width="100%" height="100%"/><use id="use1599" xlink:href="#path815" transform="matrix(.93578 0 0 .93578 2.46 148.055)" x="0" y="0" width="100%" height="100%"/><use id="use1601" xlink:href="#path815" transform="matrix(.69186 0 0 .69186 30.743 139.36)" x="0" y="0" width="100%" height="100%"/><use id="use1603" xlink:href="#path815" transform="matrix(1.30248 0 0 1.30248 32.437 130.165)" x="0" y="0" width="100%" height="100%"/><use id="use1605" xlink:href="#path815" transform="matrix(1.22707 0 0 1.22707 13.043 192.37)" x="0" y="0" width="100%" height="100%"/><use id="use1607" xlink:href="#path815" transform="matrix(1.06174 0 0 1.06174 38.51 206.481)" x="0" y="0" width="100%" height="100%"/><use id="use1609" xlink:href="#path815" transform="matrix(.9022 0 0 .9022 83.107 192.215)" x="0" y="0" width="100%" height="100%"/><use id="use1611" xlink:href="#path815" transform="matrix(1.04125 0 0 1.04125 11.146 165.753)" x="0" y="0" width="100%" height="100%"/><use id="use1613" xlink:href="#path815" transform="matrix(.8416 0 0 .8416 84.257 165.585)" x="0" y="0" width="100%" height="100%"/><use id="use1615" xlink:href="#path815" transform="matrix(.95 0 0 .95 139.752 137.954)" x="0" y="0" width="100%" height="100%"/><use id="use1617" xlink:href="#path815" transform="matrix(1.03264 0 0 1.03264 49.292 105.05)" x="0" y="0" width="100%" height="100%"/><use id="use1619" xlink:href="#path815" transform="matrix(.67315 0 0 .67315 84.813 130.986)" x="0" y="0" width="100%" height="100%"/><use id="use1621" xlink:href="#path815" transform="matrix(.77096 0 0 .77096 106.49 118.583)" x="0" y="0" width="100%" height="100%"/><use id="use1623" xlink:href="#path815" transform="matrix(1.01038 0 0 1.01038 9.539 197.055)" x="0" y="0" width="100%" height="100%"/><use id="use1625" xlink:href="#path815" transform="translate(111.007 122.657) scale(1.02052)" x="0" y="0" width="100%" height="100%"/><use id="use1627" xlink:href="#path815" transform="matrix(1.26512 0 0 1.26512 39.202 190.341)" x="0" y="0" width="100%" height="100%"/><use id="use1629" xlink:href="#path815" transform="matrix(.69983 0 0 .69983 22.543 142.711)" x="0" y="0" width="100%" height="100%"/><use id="use1631" xlink:href="#path815" transform="matrix(1.23756 0 0 1.23756 43.172 69.041)" x="0" y="0" width="100%" height="100%"/><use id="use1633" xlink:href="#path815" transform="matrix(1.01354 0 0 1.01354 40.469 76.385)" x="0" y="0" width="100%" height="100%"/><use id="use1635" xlink:href="#path815" transform="matrix(1.21988 0 0 1.21988 57.283 18.201)" x="0" y="0" width="100%" height="100%"/><use id="use1637" xlink:href="#path815" transform="matrix(.82898 0 0 .82898 12.374 36.09)" x="0" y="0" width="100%" height="100%"/><use id="use1639" xlink:href="#path815" transform="matrix(.79116 0 0 .79116 18.95 111.326)" x="0" y="0" width="100%" height="100%"/><use id="use1641" xlink:href="#path815" transform="matrix(1.1115 0 0 1.1115 38.753 83.89)" x="0" y="0" width="100%" height="100%"/><use id="use1643" xlink:href="#path815" transform="matrix(.95776 0 0 .95776 42.536 60.355)" x="0" y="0" width="100%" height="100%"/><use id="use1645" xlink:href="#path815" transform="matrix(1.11511 0 0 1.11511 16.598 111.254)" x="0" y="0" width="100%" height="100%"/><use id="use1647" xlink:href="#path815" transform="matrix(.79972 0 0 .79972 -4.72 91)" x="0" y="0" width="100%" height="100%"/><use id="use1649" xlink:href="#path815" transform="matrix(.74007 0 0 .74007 44.783 158.037)" x="0" y="0" width="100%" height="100%"/><use id="use1651" xlink:href="#path815" transform="matrix(.66576 0 0 .66576 110.688 179.62)" x="0" y="0" width="100%" height="100%"/><use id="use1653" xlink:href="#path815" transform="matrix(.79046 0 0 .79046 -4.894 102.296)" x="0" y="0" width="100%" height="100%"/><use id="use1655" xlink:href="#path815" transform="matrix(1.2568 0 0 1.2568 41.926 38.64)" x="0" y="0" width="100%" height="100%"/><use id="use1657" xlink:href="#path815" transform="translate(35.334 126.598) scale(.76244)" x="0" y="0" width="100%" height="100%"/><use id="use1659" xlink:href="#path815" transform="matrix(1.03214 0 0 1.03214 53.11 157.902)" x="0" y="0" width="100%" height="100%"/><use id="use1661" xlink:href="#path815" transform="translate(30.77 -8.608) scale(1.19007)" x="0" y="0" width="100%" height="100%"/><use id="use1663" xlink:href="#path815" transform="matrix(.71174 0 0 .71174 8.962 83.02)" x="0" y="0" width="100%" height="100%"/><use id="use1665" xlink:href="#path815" transform="matrix(1.29398 0 0 1.29398 12.688 51.077)" x="0" y="0" width="100%" height="100%"/><use id="use1667" xlink:href="#path815" transform="translate(23.057 81.506) scale(.7657)" x="0" y="0" width="100%" height="100%"/><use id="use1669" xlink:href="#path815" transform="translate(67.642 65.724) scale(.78338)" x="0" y="0" width="100%" height="100%"/><use id="use1671" xlink:href="#path815" transform="matrix(.92292 0 0 .92292 44.696 130.632)" x="0" y="0" width="100%" height="100%"/><use id="use1673" xlink:href="#path815" transform="translate(219.98 187.262) scale(1.19884)" x="0" y="0" width="100%" height="100%"/><use id="use1675" xlink:href="#path815" transform="translate(221.082 178.843) scale(1.12679)" x="0" y="0" width="100%" height="100%"/><use id="use1677" xlink:href="#path815" transform="translate(177.883 84.706) scale(.7745)" x="0" y="0" width="100%" height="100%"/><use id="use1679" xlink:href="#path815" transform="matrix(.88952 0 0 .88952 155.656 195.033)" x="0" y="0" width="100%" height="100%"/><use id="use1681" xlink:href="#path815" transform="translate(218.088 159.652) scale(1.037)" x="0" y="0" width="100%" height="100%"/><use id="use1683" xlink:href="#path815" transform="matrix(.79324 0 0 .79324 166.605 171.412)" x="0" y="0" width="100%" height="100%"/><use id="use1685" xlink:href="#path815" transform="matrix(1.1964 0 0 1.1964 188.22 209.576)" x="0" y="0" width="100%" height="100%"/><use id="use1687" xlink:href="#path815" transform="matrix(.85006 0 0 .85006 184.817 172.525)" x="0" y="0" width="100%" height="100%"/><use id="use1689" xlink:href="#path815" transform="matrix(.83494 0 0 .83494 221.052 128.134)" x="0" y="0" width="100%" height="100%"/><use id="use1691" xlink:href="#path815" transform="matrix(1.1535 0 0 1.1535 191.58 185.736)" x="0" y="0" width="100%" height="100%"/><use id="use1693" xlink:href="#path815" transform="matrix(.86506 0 0 .86506 150.815 215.535)" x="0" y="0" width="100%" height="100%"/><use id="use1713" xlink:href="#path815" transform="matrix(.8025 0 0 .8025 158.145 115.592)" x="0" y="0" width="100%" height="100%"/><use id="use1715" xlink:href="#path815" transform="matrix(.85272 0 0 .85272 139.466 76.259)" x="0" y="0" width="100%" height="100%"/><use id="use1717" xlink:href="#path815" transform="translate(140.672 32.3) scale(1.31048)" x="0" y="0" width="100%" height="100%"/><use id="use1719" xlink:href="#path815" transform="matrix(.73852 0 0 .73852 186.344 28.961)" x="0" y="0" width="100%" height="100%"/><use id="use1721" xlink:href="#path815" transform="matrix(1.34243 0 0 1.34243 160.49 7.342)" x="0" y="0" width="100%" height="100%"/><use id="use1723" xlink:href="#path815" transform="matrix(.7086 0 0 .7086 130.49 16.744)" x="0" y="0" width="100%" height="100%"/><use id="use1725" xlink:href="#path815" transform="matrix(.96454 0 0 .96454 171.515 -18.689)" x="0" y="0" width="100%" height="100%"/><use id="use1727" xlink:href="#path815" transform="matrix(.83944 0 0 .83944 222.127 89)" x="0" y="0" width="100%" height="100%"/><use id="use1729" xlink:href="#path815" transform="matrix(1.29693 0 0 1.29693 206.964 -14.292)" x="0" y="0" width="100%" height="100%"/><use id="use1731" xlink:href="#path815" transform="translate(104.775 23.175) scale(.88387)" x="0" y="0" width="100%" height="100%"/><use id="use1733" xlink:href="#path815" transform="translate(172.127 50.287) scale(.98794)" x="0" y="0" width="100%" height="100%"/><use id="use1735" xlink:href="#path815" transform="translate(173.11 38.36) scale(.76931)" x="0" y="0" width="100%" height="100%"/><use id="use1737" xlink:href="#path815" transform="matrix(.83202 0 0 .83202 143.435 28.527)" x="0" y="0" width="100%" height="100%"/><use id="use1739" xlink:href="#path815" transform="translate(131.716 14.662) scale(1.07886)" x="0" y="0" width="100%" height="100%"/><use id="use1741" xlink:href="#path815" transform="matrix(.96657 0 0 .96657 225.519 13.906)" x="0" y="0" width="100%" height="100%"/></g></svg>